<svg version="1.2" baseProfile="tiny" xmlns="http://www.w3.org/2000/svg" viewBox="0 0 414 414"><path fill="#485763" d="M.4.4h414v414H.4z"/><path fill="none" d="M45.4 331.2v-17.1h1.5v15.7h5.9v1.4h-7.4"/><path fill="#FFF" d="M45.4 331.2v-17.1h1.5v15.7h5.9v1.4z"/><path fill="none" d="M54.4 331.2l7.5-17.7 7.2 17.7h-1.7l-2.2-5.8h-7l-2.3 5.8h-1.5"/><path fill="none" d="M58.7 324.1h6l-2.9-7.4-3.1 7.4"/><path fill="#FFF" d="M54.4 331.2l7.5-17.8 7.2 17.8h-1.7l-2.2-5.8h-7l-2.3 5.8h-1.5zm4.3-7.1h6l-2.9-7.4-3.1 7.4z"/><path fill="none" d="M72.4 331.2v-17.8l12.1 14.3v-13.6H86v17.6l-12.1-14.3v13.8h-1.5"/><path fill="#FFF" d="M72.4 331.2v-17.8l12.1 14.3v-13.6H86v17.6l-12.1-14.3v13.8z"/><path fill="none" d="M91.7 331.2v-17.1h2.7c2.4 0 4.1.1 5 .4 1 .2 1.8.6 2.6 1.2 1 .8 1.7 1.7 2.2 2.9.5 1.2.7 2.6.7 4.1 0 1.5-.2 2.9-.7 4.1-.5 1.2-1.2 2.2-2.2 2.9-.7.6-1.6 1-2.5 1.2-1 .2-2.5.4-4.6.4h-3.2z"/><path fill="none" d="M93.3 329.9h2.2c1.8 0 3-.1 3.8-.3.7-.2 1.4-.5 1.9-1 .7-.7 1.3-1.5 1.6-2.5.4-1 .6-2.1.6-3.4 0-1.3-.2-2.5-.6-3.4-.4-1-.9-1.8-1.6-2.4-.6-.5-1.2-.8-2-1-.8-.2-2.2-.3-4.1-.3h-1.7c-.1-.2-.1 14.3-.1 14.3z"/><path fill="#FFF" d="M91.7 331.2v-17.1h2.7c2.4 0 4.1.1 5 .4 1 .2 1.8.6 2.6 1.2 1 .8 1.7 1.7 2.2 2.9.5 1.2.7 2.6.7 4.1 0 1.5-.2 2.9-.7 4.1-.5 1.2-1.2 2.2-2.2 2.9-.7.6-1.6 1-2.5 1.2-1 .2-2.5.4-4.6.4-.5-.1-3.2-.1-3.2-.1zm1.6-1.3h2.2c1.8 0 3-.1 3.8-.3.7-.2 1.4-.5 1.9-1 .7-.7 1.3-1.5 1.6-2.5.4-1 .6-2.1.6-3.4 0-1.3-.2-2.5-.6-3.4-.4-1-.9-1.8-1.6-2.4-.6-.5-1.2-.8-2-1-.8-.2-2.2-.3-4.1-.3h-1.7l-.1 14.3z"/><path fill="none" d="M108.5 328.4l1.3-.7c.2.8.7 1.5 1.3 2 .6.5 1.3.7 2.2.7 1.1 0 1.9-.3 2.5-1s.9-1.5.9-2.7c0-.8-.2-1.5-.6-2.1-.4-.6-1.3-1.2-2.6-1.9-1.7-.9-2.9-1.7-3.4-2.4-.6-.7-.9-1.5-.9-2.5 0-1.2.4-2.2 1.2-3 .8-.8 1.9-1.1 3.2-1.1.9 0 1.6.2 2.2.5.6.4 1.1.9 1.5 1.6l-1.2.7c-.2-.5-.6-.9-1.1-1.1s-1-.4-1.6-.4c-.8 0-1.5.2-2 .7-.5.5-.7 1.2-.7 2 0 1.2 1 2.3 3 3.4l.8.4c1.5.8 2.4 1.6 2.9 2.3.5.7.7 1.6.7 2.8 0 1.5-.5 2.8-1.3 3.6-.9.9-2.1 1.3-3.7 1.3-1.1 0-2.1-.3-2.9-.8-.6-.4-1.2-1.2-1.7-2.3z"/><path fill="#FFF" d="M108.5 328.4l1.3-.7c.2.8.7 1.5 1.3 2 .6.5 1.3.7 2.2.7 1.1 0 1.9-.3 2.5-1s.9-1.5.9-2.7c0-.8-.2-1.5-.6-2.1-.4-.6-1.3-1.2-2.6-1.9-1.7-.9-2.9-1.7-3.4-2.4-.6-.7-.9-1.5-.9-2.5 0-1.2.4-2.2 1.2-3 .8-.8 1.9-1.1 3.2-1.1.9 0 1.6.2 2.2.5.6.4 1.1.9 1.5 1.6l-1.2.7c-.2-.5-.6-.9-1.1-1.1s-1-.4-1.6-.4c-.8 0-1.5.2-2 .7-.5.5-.7 1.2-.7 2 0 1.2 1 2.3 3 3.4l.8.4c1.5.8 2.4 1.6 2.9 2.3.5.7.7 1.6.7 2.8 0 1.5-.5 2.8-1.3 3.6-.9.9-2.1 1.3-3.7 1.3-1.1 0-2.1-.3-2.9-.8-.6-.4-1.2-1.2-1.7-2.3z"/><path fill="none" d="M136.9 317.3c-.8-.7-1.7-1.3-2.6-1.6s-1.8-.5-2.8-.5c-2.2 0-4 .7-5.4 2.1-1.4 1.4-2.1 3.2-2.1 5.5 0 1.1.2 2.1.5 3 .3.9.9 1.7 1.5 2.4.7.7 1.5 1.2 2.3 1.6.9.4 1.8.5 2.8.5 1 0 1.9-.2 2.9-.5.9-.3 1.8-.8 2.7-1.5v1.8c-.8.5-1.7.9-2.7 1.2-.9.3-1.9.4-2.8.4-1.2 0-2.4-.2-3.5-.7-1.1-.4-2.1-1.1-2.9-1.9-.8-.8-1.5-1.8-1.9-2.9-.4-1.1-.6-2.3-.6-3.6 0-1.3.2-2.5.7-3.6.4-1.1 1.1-2.1 1.9-2.9.8-.8 1.8-1.4 2.9-1.8 1.1-.4 2.3-.7 3.5-.7 1.1 0 2.1.1 3 .5.9.3 1.8.7 2.5 1.3l.1 1.9z"/><path fill="#FFF" d="M136.9 317.3c-.8-.7-1.7-1.3-2.6-1.6s-1.8-.5-2.8-.5c-2.2 0-4 .7-5.4 2.1-1.4 1.4-2.1 3.2-2.1 5.5 0 1.1.2 2.1.5 3 .3.9.9 1.7 1.5 2.4.7.7 1.5 1.2 2.3 1.6.9.4 1.8.5 2.8.5 1 0 1.9-.2 2.9-.5.9-.3 1.8-.8 2.7-1.5v1.8c-.8.5-1.7.9-2.7 1.2-.9.3-1.9.4-2.8.4-1.2 0-2.4-.2-3.5-.7-1.1-.4-2.1-1.1-2.9-1.9-.8-.8-1.5-1.8-1.9-2.9-.4-1.1-.6-2.3-.6-3.6 0-1.3.2-2.5.7-3.6.4-1.1 1.1-2.1 1.9-2.9.8-.8 1.8-1.4 2.9-1.8 1.1-.4 2.3-.7 3.5-.7 1.1 0 2.1.1 3 .5.9.3 1.8.7 2.5 1.3l.1 1.9z"/><path fill="none" d="M139.4 331.2l7.5-17.7 7.2 17.7h-1.7l-2.2-5.8h-7l-2.3 5.8h-1.5"/><path fill="none" d="M143.7 324.1h6l-2.9-7.4-3.1 7.4"/><path fill="#FFF" d="M139.4 331.2l7.5-17.8 7.2 17.8h-1.7l-2.2-5.8h-7l-2.3 5.8h-1.5zm4.3-7.1h6l-2.9-7.4-3.1 7.4z"/><path fill="none" d="M157.4 331.2v-17.1h3.1c1.2 0 2.1.1 2.7.2s1.1.4 1.5.6c.5.4 1 .9 1.2 1.6s.4 1.4.4 2.2c0 1.6-.5 2.8-1.4 3.6-.9.8-2.3 1.1-4.3 1.1H159v7.7l-1.6.1z"/><path fill="none" d="M159 322.2h1.1c1.9 0 3.1-.2 3.8-.7.6-.5 1-1.3 1-2.5 0-.5-.1-1-.2-1.4-.1-.4-.4-.8-.7-1.1-.3-.3-.7-.6-1.2-.7-.5-.1-1.4-.2-2.7-.2H159v6.6z"/><path fill="#FFF" d="M157.4 331.2v-17.1h3.1c1.2 0 2.1.1 2.7.2s1.1.4 1.5.6c.5.4 1 .9 1.2 1.6s.4 1.4.4 2.2c0 1.6-.5 2.8-1.4 3.6-.9.8-2.3 1.1-4.3 1.1H159v7.7l-1.6.1zm1.6-9h1.1c1.9 0 3.1-.2 3.8-.7.6-.5 1-1.3 1-2.5 0-.5-.1-1-.2-1.4-.1-.4-.4-.8-.7-1.1-.3-.3-.7-.6-1.2-.7-.5-.1-1.4-.2-2.7-.2H159v6.6z"/><path fill="none" d="M170.8 331.2v-17.1h8.5v1.5h-6.9v5.3h6.9v1.5h-6.9v7.4h6.9v1.4h-8.5"/><path fill="#FFF" d="M170.8 331.2v-17.1h8.5v1.5h-6.9v5.3h6.9v1.5h-6.9v7.4h6.9v1.4z"/><path fill="none" d="M190.6 331.2l7.5-17.7 7.2 17.7h-1.7l-2.2-5.8h-7l-2.3 5.8h-1.5"/><path fill="none" d="M194.9 324.1h6l-2.9-7.4-3.1 7.4"/><path fill="#FFF" d="M190.6 331.2l7.5-17.8 7.2 17.8h-1.7l-2.2-5.8h-7l-2.3 5.8h-1.5zm4.3-7.1h6l-2.9-7.4-3.1 7.4z"/><path fill="none" d="M219 331.2h-1.9l-6-8.1h-.9v8.1h-1.6v-17.1h3.1c1.8 0 3.2.4 4.2 1.1.9.8 1.4 1.9 1.4 3.5 0 1.3-.4 2.4-1.2 3.1-.8.8-1.9 1.1-3.3 1.1l6.2 8.3z"/><path fill="none" d="M210.2 315.5v6.3h1.6c1.4 0 2.5-.2 3-.7.6-.5.9-1.2.9-2.4s-.3-2-.9-2.5c-.6-.5-1.6-.7-3-.7h-1.6z"/><path fill="#FFF" d="M219 331.2h-1.9l-6-8.1h-.9v8.1h-1.6v-17.1h3.1c1.8 0 3.2.4 4.2 1.1.9.8 1.4 1.9 1.4 3.5 0 1.3-.4 2.4-1.2 3.1-.8.8-1.9 1.1-3.3 1.1l6.2 8.3zm-8.8-15.7v6.3h1.6c1.4 0 2.5-.2 3-.7.6-.5.9-1.2.9-2.4s-.3-2-.9-2.5c-.6-.5-1.6-.7-3-.7h-1.6z"/><path fill="none" d="M236.4 317.3c-.8-.7-1.7-1.3-2.6-1.6-.9-.4-1.8-.5-2.8-.5-2.2 0-4 .7-5.4 2.1-1.4 1.4-2.1 3.2-2.1 5.5 0 1.1.2 2.1.5 3 .3.9.9 1.7 1.5 2.4.7.7 1.5 1.2 2.3 1.6.9.4 1.8.5 2.8.5 1 0 1.9-.2 2.9-.5.9-.3 1.8-.8 2.7-1.5v1.8c-.8.5-1.7.9-2.7 1.2-.9.3-1.9.4-2.8.4-1.2 0-2.4-.2-3.5-.7-1.1-.4-2.1-1.1-2.9-1.9-.8-.8-1.5-1.8-1.9-2.9-.4-1.1-.6-2.3-.6-3.6 0-1.3.2-2.5.7-3.6.4-1.1 1.1-2.1 1.9-2.9.8-.8 1.8-1.4 2.9-1.8 1.1-.4 2.3-.7 3.5-.7 1.1 0 2.1.1 3 .5.9.3 1.8.7 2.5 1.3l.1 1.9z"/><path fill="#FFF" d="M236.4 317.3c-.8-.7-1.7-1.3-2.6-1.6-.9-.4-1.8-.5-2.8-.5-2.2 0-4 .7-5.4 2.1-1.4 1.4-2.1 3.2-2.1 5.5 0 1.1.2 2.1.5 3 .3.9.9 1.7 1.5 2.4.7.7 1.5 1.2 2.3 1.6.9.4 1.8.5 2.8.5 1 0 1.9-.2 2.9-.5.9-.3 1.8-.8 2.7-1.5v1.8c-.8.5-1.7.9-2.7 1.2-.9.3-1.9.4-2.8.4-1.2 0-2.4-.2-3.5-.7-1.1-.4-2.1-1.1-2.9-1.9-.8-.8-1.5-1.8-1.9-2.9-.4-1.1-.6-2.3-.6-3.6 0-1.3.2-2.5.7-3.6.4-1.1 1.1-2.1 1.9-2.9.8-.8 1.8-1.4 2.9-1.8 1.1-.4 2.3-.7 3.5-.7 1.1 0 2.1.1 3 .5.9.3 1.8.7 2.5 1.3l.1 1.9z"/><path fill="none" d="M241.2 331.2v-17.1h1.6v7h9.3v-7h1.5v17.1h-1.5v-8.8h-9.3v8.8h-1.6"/><path fill="#FFF" d="M241.2 331.2v-17.1h1.6v7h9.3v-7h1.5v17.1h-1.5v-8.8h-9.3v8.8z"/><path fill="none" d="M259.3 331.2v-17.1h1.6v17.1h-1.6"/><path fill="#FFF" d="M259.3 331.2v-17.1h1.6v17.1z"/><path fill="none" d="M269.7 331.2v-15.6h-4.8v-1.5h11v1.5h-4.7v15.6h-1.5"/><path fill="#FFF" d="M269.7 331.2v-15.6h-4.8v-1.5h11v1.5h-4.7v15.6z"/><path fill="none" d="M279.9 331.2v-17.1h8.5v1.5h-6.9v5.3h6.9v1.5h-6.9v7.4h6.9v1.4h-8.5"/><path fill="#FFF" d="M279.9 331.2v-17.1h8.5v1.5h-6.9v5.3h6.9v1.5h-6.9v7.4h6.9v1.4z"/><path fill="none" d="M307.4 317.3c-.8-.7-1.7-1.3-2.6-1.6-.9-.4-1.8-.5-2.8-.5-2.2 0-4 .7-5.4 2.1-1.4 1.4-2.1 3.2-2.1 5.5 0 1.1.2 2.1.5 3 .3.9.9 1.7 1.5 2.4.7.7 1.5 1.2 2.3 1.6.9.4 1.8.5 2.8.5 1 0 1.9-.2 2.9-.5.9-.3 1.8-.8 2.7-1.5v1.8c-.8.5-1.7.9-2.7 1.2-.9.3-1.9.4-2.8.4-1.2 0-2.4-.2-3.5-.7-1.1-.4-2.1-1.1-2.9-1.9-.8-.8-1.5-1.8-1.9-2.9-.4-1.1-.6-2.3-.6-3.6 0-1.3.2-2.5.7-3.6.4-1.1 1.1-2.1 1.9-2.9.8-.8 1.8-1.4 2.9-1.8 1.1-.4 2.3-.7 3.5-.7 1.1 0 2.1.1 3 .5.9.3 1.8.7 2.5 1.3l.1 1.9z"/><path fill="#FFF" d="M307.4 317.3c-.8-.7-1.7-1.3-2.6-1.6-.9-.4-1.8-.5-2.8-.5-2.2 0-4 .7-5.4 2.1-1.4 1.4-2.1 3.2-2.1 5.5 0 1.1.2 2.1.5 3 .3.9.9 1.7 1.5 2.4.7.7 1.5 1.2 2.3 1.6.9.4 1.8.5 2.8.5 1 0 1.9-.2 2.9-.5.9-.3 1.8-.8 2.7-1.5v1.8c-.8.5-1.7.9-2.7 1.2-.9.3-1.9.4-2.8.4-1.2 0-2.4-.2-3.5-.7-1.1-.4-2.1-1.1-2.9-1.9-.8-.8-1.5-1.8-1.9-2.9-.4-1.1-.6-2.3-.6-3.6 0-1.3.2-2.5.7-3.6.4-1.1 1.1-2.1 1.9-2.9.8-.8 1.8-1.4 2.9-1.8 1.1-.4 2.3-.7 3.5-.7 1.1 0 2.1.1 3 .5.9.3 1.8.7 2.5 1.3l.1 1.9z"/><path fill="none" d="M315.2 331.2v-15.6h-4.7v-1.5h11v1.5h-4.7v15.6h-1.6"/><path fill="#FFF" d="M315.2 331.2v-15.6h-4.7v-1.5h11v1.5h-4.7v15.6z"/><path fill="none" d="M325.5 314.1h1.5v11.2c0 1.7.4 2.9 1.2 3.8.8.8 1.9 1.2 3.5 1.2s2.7-.4 3.5-1.2c.8-.8 1.1-2.1 1.1-3.8v-11.2h1.6v10.6c0 2.3-.5 4-1.5 5.2-1 1.1-2.6 1.7-4.7 1.7s-3.7-.6-4.7-1.7-1.5-2.9-1.5-5.2v-10.6z"/><path fill="#FFF" d="M325.5 314.1h1.5v11.2c0 1.7.4 2.9 1.2 3.8.8.8 1.9 1.2 3.5 1.2s2.7-.4 3.5-1.2c.8-.8 1.1-2.1 1.1-3.8v-11.2h1.6v10.6c0 2.3-.5 4-1.5 5.2-1 1.1-2.6 1.7-4.7 1.7s-3.7-.6-4.7-1.7-1.5-2.9-1.5-5.2v-10.6z"/><path fill="none" d="M353.9 331.2H352l-6-8.1h-.9v8.1h-1.6v-17.1h3.1c1.8 0 3.2.4 4.2 1.1.9.8 1.4 1.9 1.4 3.5 0 1.3-.4 2.4-1.2 3.1-.8.8-1.9 1.1-3.3 1.1l6.2 8.3z"/><path fill="none" d="M345.1 315.5v6.3h1.6c1.4 0 2.5-.2 3-.7.6-.5.9-1.2.9-2.4s-.3-2-.9-2.5c-.6-.5-1.6-.7-3-.7h-1.6z"/><path fill="#FFF" d="M353.9 331.2H352l-6-8.1h-.9v8.1h-1.6v-17.1h3.1c1.8 0 3.2.4 4.2 1.1.9.8 1.4 1.9 1.4 3.5 0 1.3-.4 2.4-1.2 3.1-.8.8-1.9 1.1-3.3 1.1l6.2 8.3zm-8.8-15.7v6.3h1.6c1.4 0 2.5-.2 3-.7.6-.5.9-1.2.9-2.4s-.3-2-.9-2.5c-.6-.5-1.6-.7-3-.7h-1.6z"/><path fill="none" d="M357.6 331.2v-17.1h8.5v1.5h-6.9v5.3h6.9v1.5h-6.9v7.4h6.9v1.4h-8.5"/><path fill="#FFF" d="M357.6 331.2v-17.1h8.5v1.5h-6.9v5.3h6.9v1.5h-6.9v7.4h6.9v1.4z"/><path fill="none" d="M65.4 296.9h-4.5l-1-7.6c-.1-.5-.1-1.1-.2-1.8s-.1-1.4-.2-2.2c-.1.7-.3 1.7-.7 2.8-.1.2-.1.4-.2.5l-2.4 8.3H53l-2.4-8.3c0-.1-.1-.3-.1-.5-.3-1.1-.6-2-.7-2.8 0 .7-.1 1.3-.2 2s-.1 1.3-.2 2l-1 7.6H44l2.7-17.7h4.8l2.7 9.1c0 .1 0 .2.1.3.2.8.4 1.5.5 2.1 0-.3.1-.7.2-1 .1-.4.2-.8.4-1.4l2.7-9.1h4.8l2.5 17.7z"/><path fill="#FFF" d="M65.4 296.9h-4.5l-1-7.6c-.1-.5-.1-1.1-.2-1.8s-.1-1.4-.2-2.2c-.1.7-.3 1.7-.7 2.8-.2.5-2.6 8.8-2.6 8.8H53l-2.4-8.3c-.5-1.6-.7-2.6-.8-3.3 0 .7-.1 1.3-.2 2s-.1 1.3-.2 2l-1 7.6H44l2.7-17.7h4.8l2.7 9.1c.3 1.1.5 1.8.6 2.4 0-.3.1-.7.2-1 .1-.4.2-.8.4-1.4l2.7-9.1h4.8l2.5 17.7z"/><path fill="none" d="M68.5 296.9v-17.7h10.9v3.9h-6.2v3.1H79v3.7h-5.8v3h6.2v4H68.5"/><path fill="#FFF" d="M68.5 296.9v-17.7h10.9v3.9h-6.2v3.1H79v3.7h-5.8v3h6.2v4z"/><path fill="none" d="M83.1 296.9v-17.7h4.8v13.5h6v4.2H83.1"/><path fill="#FFF" d="M83.1 296.9v-17.7h4.8v13.5h6v4.2z"/><path fill="none" d="M96.8 296.9v-17.7h4.9v17.7h-4.9"/><path fill="#FFF" d="M96.8 296.9v-17.7h4.9v17.7z"/><path fill="none" d="M106.1 296.9v-17.7h4.8v13.5h6v4.2h-10.8"/><path fill="#FFF" d="M106.1 296.9v-17.7h4.8v13.5h6v4.2z"/><path fill="none" d="M119.8 296.9v-17.7h4.8v13.5h5.9v4.2h-10.7"/><path fill="#FFF" d="M119.8 296.9v-17.7h4.8v13.5h5.9v4.2z"/><path fill="none" d="M151.1 288.1c0 1.3-.2 2.5-.7 3.6-.5 1.1-1.1 2.1-2 3-.9.9-1.9 1.5-3.1 2-1.2.5-2.4.7-3.6.7-1.3 0-2.5-.2-3.6-.7-1.1-.5-2.2-1.1-3-2-.9-.9-1.6-1.9-2.1-3s-.7-2.3-.7-3.6.2-2.4.7-3.6c.5-1.1 1.2-2.1 2.1-3 .9-.9 1.9-1.5 3-2s2.4-.7 3.6-.7c1.3 0 2.5.2 3.6.7 1.2.5 2.2 1.1 3.1 2s1.6 1.9 2 3c.5 1.1.7 2.3.7 3.6z"/><path fill="none" d="M141.7 293.3c1.3 0 2.4-.5 3.3-1.5.9-1 1.3-2.2 1.3-3.7s-.4-2.7-1.3-3.7-2-1.5-3.3-1.5c-1.3 0-2.4.5-3.3 1.5-.9 1-1.3 2.2-1.3 3.7s.4 2.8 1.3 3.7c.8 1 1.9 1.5 3.3 1.5z"/><path fill="#FFF" d="M151.1 288.1c0 1.3-.2 2.5-.7 3.6-.5 1.1-1.1 2.1-2 3-.9.9-1.9 1.5-3.1 2-1.2.5-2.4.7-3.6.7-1.3 0-2.5-.2-3.6-.7-1.1-.5-2.2-1.1-3-2-.9-.9-1.6-1.9-2.1-3s-.7-2.3-.7-3.6.2-2.4.7-3.6c.5-1.1 1.2-2.1 2.1-3 .9-.9 1.9-1.5 3-2s2.4-.7 3.6-.7c1.3 0 2.5.2 3.6.7 1.2.5 2.2 1.1 3.1 2s1.6 1.9 2 3c.5 1.1.7 2.3.7 3.6zm-9.4 5.2c1.3 0 2.4-.5 3.3-1.5.9-1 1.3-2.2 1.3-3.7s-.4-2.7-1.3-3.7-2-1.5-3.3-1.5c-1.3 0-2.4.5-3.3 1.5-.9 1-1.3 2.2-1.3 3.7s.4 2.8 1.3 3.7c.8 1 1.9 1.5 3.3 1.5z"/><path fill="none" d="M154.8 289.7v-3.5h3.6v3.5h-3.6"/><path fill="#FFF" d="M154.8 289.7v-3.5h3.6v3.5z"/><path fill="none" d="M164 296.9v-17.7h4.8c2 0 3.4.1 4.2.2.8.1 1.5.4 2 .7.6.4 1.1.8 1.5 1.5s.5 1.3.5 2.1c0 1-.3 1.8-.8 2.4-.5.6-1.3 1-2.4 1.3 1.3.1 2.2.5 2.9 1.3.7.8 1.1 1.8 1.1 3.1 0 .9-.2 1.8-.6 2.5-.4.7-1 1.3-1.7 1.7-.6.3-1.3.6-2.2.7-.9.1-2.3.2-4.3.2h-5z"/><path fill="none" d="M168.5 286.3h1c1.2 0 2-.1 2.4-.4.4-.3.7-.7.7-1.4s-.2-1.1-.6-1.4c-.4-.3-1.2-.4-2.4-.4h-1l-.1 3.6zM168.5 293.3h1.7c1.1 0 1.9-.1 2.4-.4.5-.3.7-.8.7-1.4 0-.7-.2-1.3-.6-1.6-.4-.3-1.2-.4-2.4-.4h-1.8v3.8z"/><path fill="#FFF" d="M164 296.9v-17.7h4.8c2 0 3.4.1 4.2.2.8.1 1.5.4 2 .7.6.4 1.1.8 1.5 1.5s.5 1.3.5 2.1c0 1-.3 1.8-.8 2.4-.5.6-1.3 1-2.4 1.3 1.3.1 2.2.5 2.9 1.3.7.8 1.1 1.8 1.1 3.1 0 .9-.2 1.8-.6 2.5-.4.7-1 1.3-1.7 1.7-.6.3-1.3.6-2.2.7-.9.1-2.3.2-4.3.2h-5zm4.5-10.6h1c1.2 0 2-.1 2.4-.4.4-.3.7-.7.7-1.4s-.2-1.1-.6-1.4c-.4-.3-1.2-.4-2.4-.4h-1l-.1 3.6zm0 7h1.7c1.1 0 1.9-.1 2.4-.4.5-.3.7-.8.7-1.4 0-.7-.2-1.3-.6-1.6-.4-.3-1.2-.4-2.4-.4h-1.8v3.8z"/><path fill="none" d="M179.2 296.9l6.1-17.7h6l6.1 17.7h-4.8l-.9-3.2h-6.8l-.9 3.2h-4.8"/><path fill="none" d="M185.9 290.3h4.8l-1.8-5.8c-.1-.2-.1-.5-.2-.9s-.2-.9-.4-1.5l-.3 1.2c-.1.4-.2.8-.3 1.1l-1.8 5.9z"/><path fill="#FFF" d="M179.2 296.9l6.1-17.7h6l6.1 17.7h-4.8l-.9-3.2h-6.8l-.9 3.2h-4.8zm6.7-6.6h4.8l-1.8-5.8c-.1-.2-.1-.5-.2-.9s-.2-.9-.4-1.5l-.3 1.2c-.1.4-.2.8-.3 1.1l-1.8 5.9z"/><path fill="none" d="M199.1 279.2h4.8v8.6c0 1.3 0 2.2.1 2.7.1.6.2 1 .3 1.4.2.5.5.8 1 1 .5.2 1 .4 1.7.4s1.2-.1 1.7-.4c.5-.2.8-.6 1-1 .1-.4.3-.8.3-1.4.1-.6.1-1.5.1-2.7v-8.6h4.8v9.3c0 1.9-.1 3.4-.4 4.3-.2.9-.6 1.7-1.2 2.4s-1.4 1.2-2.5 1.6c-1.1.4-2.3.5-3.8.5s-2.8-.2-3.8-.5c-1.1-.4-1.9-.9-2.5-1.6-.6-.6-.9-1.4-1.2-2.4-.2-.9-.4-2.3-.4-4.3v-9.3z"/><path fill="#FFF" d="M199.1 279.2h4.8v8.6c0 1.3 0 2.2.1 2.7.1.6.2 1 .3 1.4.2.5.5.8 1 1 .5.2 1 .4 1.7.4s1.2-.1 1.7-.4c.5-.2.8-.6 1-1 .1-.4.3-.8.3-1.4.1-.6.1-1.5.1-2.7v-8.6h4.8v9.3c0 1.9-.1 3.4-.4 4.3-.2.9-.6 1.7-1.2 2.4s-1.4 1.2-2.5 1.6c-1.1.4-2.3.5-3.8.5s-2.8-.2-3.8-.5c-1.1-.4-1.9-.9-2.5-1.6-.6-.6-.9-1.4-1.2-2.4-.2-.9-.4-2.3-.4-4.3v-9.3z"/><path fill="none" d="M219 296.9v-17.7h10.8v3.9h-6.1v3.1h5.7v3.7h-5.7v3h6.1v4H219"/><path fill="#FFF" d="M219 296.9v-17.7h10.8v3.9h-6.1v3.1h5.7v3.7h-5.7v3h6.1v4z"/><path fill="none" d="M233.5 296.9v-17.7h5c2 0 3.3.1 4.1.3.8.2 1.4.5 2 .9.6.5 1.1 1.1 1.5 1.8s.5 1.6.5 2.5c0 1.4-.3 2.5-1 3.3-.7.9-1.7 1.4-2.9 1.7l4.8 7.1H242l-4-6.9v6.9l-4.5.1z"/><path fill="none" d="M238 287.6h.9c1 0 1.8-.2 2.3-.5.5-.4.7-.9.7-1.7 0-.9-.2-1.5-.7-1.9-.5-.4-1.2-.6-2.2-.6h-1v4.7z"/><path fill="#FFF" d="M233.5 296.9v-17.7h5c2 0 3.3.1 4.1.3.8.2 1.4.5 2 .9.6.5 1.1 1.1 1.5 1.8s.5 1.6.5 2.5c0 1.4-.3 2.5-1 3.3-.7.9-1.7 1.4-2.9 1.7l4.8 7.1H242l-4-6.9v6.9l-4.5.1zm4.5-9.3h.9c1 0 1.8-.2 2.3-.5.5-.4.7-.9.7-1.7 0-.9-.2-1.5-.7-1.9-.5-.4-1.2-.6-2.2-.6h-1v4.7z"/><path fill="none" d="M250 289.7v-3.5h3.6v3.5H250"/><path fill="#FFF" d="M250 289.7v-3.5h3.6v3.5z"/><path fill="none" d="M272 279.9v5.3c-.7-.7-1.3-1.3-2-1.6-.7-.3-1.4-.5-2.1-.5-1.4 0-2.5.5-3.4 1.4-.9.9-1.3 2.2-1.3 3.7 0 1.4.4 2.6 1.3 3.5.9.9 2 1.4 3.3 1.4.7 0 1.4-.2 2.1-.5.7-.3 1.3-.9 2-1.6v5.3c-.8.4-1.5.6-2.3.8-.8.2-1.5.3-2.3.3-1 0-1.9-.1-2.7-.3-.8-.2-1.6-.6-2.2-1-1.3-.9-2.3-2-3-3.3-.7-1.3-1-2.8-1-4.5 0-1.3.2-2.6.7-3.7.4-1.1 1.1-2.1 2-3 .8-.9 1.8-1.5 2.8-1.9 1.1-.4 2.2-.6 3.5-.6.8 0 1.5.1 2.3.3.8-.1 1.5.1 2.3.5z"/><path fill="#FFF" d="M272 279.9v5.3c-.7-.7-1.3-1.3-2-1.6-.7-.3-1.4-.5-2.1-.5-1.4 0-2.5.5-3.4 1.4-.9.9-1.3 2.2-1.3 3.7 0 1.4.4 2.6 1.3 3.5.9.9 2 1.4 3.3 1.4.7 0 1.4-.2 2.1-.5.7-.3 1.3-.9 2-1.6v5.3c-.8.4-1.5.6-2.3.8-.8.2-1.5.3-2.3.3-1 0-1.9-.1-2.7-.3-.8-.2-1.6-.6-2.2-1-1.3-.9-2.3-2-3-3.3-.7-1.3-1-2.8-1-4.5 0-1.3.2-2.6.7-3.7.4-1.1 1.1-2.1 2-3 .8-.9 1.8-1.5 2.8-1.9 1.1-.4 2.2-.6 3.5-.6.8 0 1.5.1 2.3.3.8-.1 1.5.1 2.3.5z"/><path fill="none" d="M273.1 296.9l6.1-17.7h6.1l6.1 17.7h-4.8l-.9-3.2h-6.9l-.9 3.2h-4.8"/><path fill="none" d="M279.9 290.3h4.8l-1.8-5.8c-.1-.2-.1-.5-.2-.9s-.2-.9-.4-1.5l-.3 1.2c-.1.4-.2.8-.3 1.1l-1.8 5.9z"/><path fill="#FFF" d="M273.1 296.9l6.1-17.7h6l6.1 17.7h-4.8l-.9-3.2h-6.8l-.9 3.2h-4.8zm6.8-6.6h4.8l-1.8-5.8c-.1-.2-.1-.5-.2-.9s-.2-.9-.4-1.5l-.3 1.2c-.1.4-.2.8-.3 1.1l-1.8 5.9z"/><path fill="none" d="M293.6 296.9v-17.7h5c2 0 3.3.1 4.1.3.8.2 1.4.5 2 .9.6.5 1.1 1.1 1.5 1.8s.5 1.6.5 2.5c0 1.4-.3 2.5-1 3.3-.7.9-1.7 1.4-2.9 1.7l4.8 7.1h-5.4l-4-6.9v6.9l-4.6.1z"/><path fill="none" d="M298.1 287.6h.9c1 0 1.8-.2 2.3-.5.5-.4.7-.9.7-1.7 0-.9-.2-1.5-.7-1.9-.5-.4-1.2-.6-2.2-.6h-1v4.7z"/><path fill="#FFF" d="M293.6 296.9v-17.7h5c2 0 3.3.1 4.1.3.8.2 1.4.5 2 .9.6.5 1.1 1.1 1.5 1.8s.5 1.6.5 2.5c0 1.4-.3 2.5-1 3.3-.7.9-1.7 1.4-2.9 1.7l4.8 7.1h-5.4l-4-6.9v6.9l-4.6.1zm4.5-9.3h.9c1 0 1.8-.2 2.3-.5.5-.4.7-.9.7-1.7 0-.9-.2-1.5-.7-1.9-.5-.4-1.2-.6-2.2-.6h-1v4.7z"/><path fill="none" d="M330.2 296.9h-4.5l-1-7.6c-.1-.5-.1-1.1-.2-1.8s-.1-1.4-.2-2.2c-.1.7-.3 1.7-.7 2.8-.1.2-.1.4-.2.5l-2.4 8.3h-3.2l-2.4-8.3c0-.1-.1-.3-.1-.5-.3-1.1-.6-2-.7-2.8 0 .7-.1 1.3-.2 2s-.1 1.3-.2 2l-1 7.6h-4.5l2.7-17.7h4.8l2.7 9.1c0 .1 0 .2.1.3.2.8.4 1.5.5 2.1 0-.3.1-.7.2-1 .1-.4.2-.8.4-1.4l2.7-9.1h4.8l2.6 17.7z"/><path fill="#FFF" d="M330.2 296.9h-4.5l-1-7.6c-.1-.5-.1-1.1-.2-1.8s-.1-1.4-.2-2.2c-.1.7-.3 1.7-.7 2.8-.2.5-2.6 8.8-2.6 8.8h-3.2l-2.4-8.3c-.5-1.6-.7-2.6-.8-3.3 0 .7-.1 1.3-.2 2s-.1 1.3-.2 2l-1 7.6h-4.5l2.7-17.7h4.8l2.7 9.1c.3 1.1.5 1.8.6 2.4 0-.3.1-.7.2-1 .1-.4.2-.8.4-1.4l2.7-9.1h4.8l2.6 17.7z"/><path fill="none" d="M331.2 296.9l6.1-17.7h6l6.1 17.7h-4.8l-.9-3.2h-6.8l-.9 3.2h-4.8"/><path fill="none" d="M337.9 290.3h4.8l-1.8-5.8c-.1-.2-.1-.5-.2-.9s-.2-.9-.4-1.5l-.3 1.2c-.1.4-.2.8-.3 1.1l-1.8 5.9z"/><path fill="#FFF" d="M331.2 296.9l6.1-17.7h6l6.1 17.7h-4.8l-.9-3.2h-6.8l-.9 3.2h-4.8zm6.7-6.6h4.8l-1.8-5.8c-.1-.2-.1-.5-.2-.9s-.2-.9-.4-1.5l-.3 1.2c-.1.4-.2.8-.3 1.1l-1.8 5.9z"/><path fill="none" d="M351.6 296.9v-17.7h4.6l6.7 9.1c.1.2.3.6.6 1.1l1 2c-.1-.7-.2-1.4-.2-2 0-.6-.1-1.1-.1-1.5v-8.7h4.6v17.7h-4.6l-6.7-9.1c-.1-.2-.4-.6-.6-1.1l-1-2c.1.7.2 1.4.2 2 0 .6.1 1.1.1 1.5v8.7h-4.6z"/><path fill="#FFF" d="M351.6 296.9v-17.7h4.6l6.7 9.1c.1.2.3.6.6 1.1l1 2c-.1-.7-.2-1.4-.2-2 0-.6-.1-1.1-.1-1.5v-8.7h4.6v17.7h-4.6l-6.7-9.1c-.1-.2-.4-.6-.6-1.1l-1-2c.1.7.2 1.4.2 2 0 .6.1 1.1.1 1.5v8.7h-4.6z"/><g><path fill-rule="evenodd" fill="#FFF" d="M370 251.5H211.9V93.4H370v158.1zm-87.9-6h-.9l.6 3.7-1.4.2-.6-3.9h-12.2l.2 2-1.5.2-.2-2.2h-1.6V244h1.4l-2.6-24.6-10.1 24.3h1.5v1.5h-2.1l-1.5 3.4-1.3-.5 1.2-2.9h-4.3l.6 1.4-1.4.5-.8-1.9h-5.6v-1.5h5l-9.3-23.7-3.1 24h2.2v1.5h-2.5l-.4 3.4-1.5-.2.4-3.2h-11.9l-.5 2.5-1.4-.2.4-2.2h-2.1V244h2.3l8.4-48H224v-1.5h1.8l.4-2.4 1.4.2-.4 2.2h10.7l-2.2-5.7 1.3-.5 11.8 31L258 196h-2.4v-1.5h3.1l1.3-3.3 1.4.5-1.1 2.7h11l-.6-4.1 1.5-.2.7 4.3h3.1v1.5h-2.9l7.7 48h1.1l.2 1.6zm40.2-15.3c0 10-5.8 15-17.4 15h-19.5v4.2H284v-4.2h-2.5v-1.5h2.5V196h-4v-1.5h4v-5.4h1.5v5.4H301c11.2 0 16.9 4.5 16.9 13.5 0 4.5-1.6 7.6-4.7 9.2 2.7 1 4.9 2.7 6.6 5 1.7 2.5 2.5 5.1 2.5 8zm-17.4-20.3c0-2.6-1.4-3.9-4.1-3.9h-3.3v7.8h2.8c1.2 0 2.3-.3 3.3-1 .8-.7 1.3-1.7 1.3-2.9zm3.4 19.5c0-2.8-2.1-4.2-6.2-4.2h-4.6v8.5h4.4c4.2 0 6.4-1.5 6.4-4.3zm59.2-30.3l-1 1c-1-.9-2.1-1.7-3.4-2.4v11.4l1.7 2-1.2.8-.5-.6v2.4h-1.5v-3.9c-2.5-2.2-5.8-3.3-10.1-3.3-4 0-7.2 1.3-9.6 3.8-2.4 2.5-3.6 5.8-3.6 9.8 0 3.8 1.3 6.8 3.8 9.1 2.4 2.1 5.6 3.2 9.4 3.2 3.9 0 7.4-1.3 10.5-3.9V225h1.5v1.9l1.2.9-1.2 1.2v12.2l2.6-1.7.9 1.2c-1 .8-2.2 1.5-3.6 2.2v3.7h-1.5v-3.1c-4.5 2.1-8.4 3.1-11.6 3.1-7.8 0-14.3-2.4-19.3-7.3s-7.6-11.2-7.6-19c0-7.8 2.5-14.2 7.5-19.3 5-5.1 11.4-7.7 19.1-7.7 4.1 0 7.9.7 11.4 2v-2h1.5v2.7c2 .9 3.4 1.9 4.6 3.1z"/><path fill="none" d="M370 251.5H211.9V93.4H370v158.1"/><path fill="#FFF" d="M47.6 97.8c-1.3-.5-2.7-1.1-2.7-2.4 0-1.3.5-1.3 1.6-1.3.3 0 1.2.5 1.2-.6 0-.5 0-1 1.1-1 .6 0 2.5-1 2.5-2.2 0-.7-.1-1.4.3-1.4.3 0 .7 0 1.4 1.5.6 1.5 1.1 1.7 1.9 2 .7.1 3 .6 4.2-.5 1.5-.9 3.4-1.9 4.9-.8 1.4.3 5.5.3 7.4-.1 2.1-.6 5.8-1.3 7.4-1.4 3.3 0 7.9 0 9.3-1.7 1.1-1.7 1.6-3.3 2.5-3.2.7-.1 1.5.5 1.7 2.6.1.5.4 1.2 3 .9s4.3-.7 5.4-1.6c1.9-1.5 3.4-3.2 3.4-3.2.7-.8 3.1-2.2 3.7.3.3 1.1.2 3.3.9 4 .7.4 1.6 1.1 2.4 1.1.7 0 2.4.1 3.4 1.5.7.1 1.2.2 1.8-.7.5-.9.8-.3 1.3-.1.7.2 3.4.2 4.5.3.9.3 1.9.3 1.8 2.7.1 1 .1 2.3.1 2.7s.7.8 1.4.8c2 .1 6.8-.6 8.1.9.9.8 1.4 1.3 2.1 1.6.7.3 1.1.9 1.1 2.3s.6 4.7 3.4 4.7h7c1.1 0 1.8.1 1.9 1.8.2 2.2-.9 10.3-.6 12.6.6 3.1 1.5 15.6 1.5 17.7.1 3.5.1 17.3-.1 19.4-.1 4.2 0 9.6-.3 10.9-.1 1.3.4 3.4.6 4.6.1 1.4-.1 3.9-.6 5.3s.5 4.2.9 5.3c.4.8.7 3.2.2 5.3-.2 1.6-.2 2.4-.5 2.9 0 1.1.5 3-1.3 3.7-.1 1.1-.8 4.8-.8 5.9 0 .7-.1 1.7 0 2.2.1.5.6.5.8 0 .2-1.9.7-5.1.6-6.3 0-.7.3-1.7.9-2.2.6-.6 1.5-1.2 1.7-2.3.2-1.1.6-1.3.1-2.2-.3-.8-1.2-4.4.2-7.2.5-.6.8-.6 1.3-1s.4-1.3.4-2 .1-2.3-.5-3.4c-.1-.4-.3-1.3.4-2.2.8-1.1 1.3-2.2.8-3.2s-.7-2.5.1-2.9c.8-.5.9-1.5.4-2.8s-.7-6.7.1-7.9c.4-.9.3-1.9.3-2.4s.6-1.5 1.2-2.7c.3-.8-.1-4.6-.8-6-.6-1.4-.5-2.9.5-3.7.6-1.1 1.1-2.5.8-3.5-.2-1.1-.7-2.9 0-4.6.3-2.1.5-4.3.3-5.6.1-1 .9-2.1 1.7-2.8.8-.7.6-2 .5-2.6 0-.8.8-1.9 1.1-2.6s-.1-3.7-.5-4.5c-.4-.8-1.5-3.9 1.6-3.6 1.6.5 3.6.6 4.9.1.6-.4 2.4-.5 1.7-2.3-.4-.8.1-2.1 1.7-1.9 2.5 0 4.9-.4 6 .7 1.2 1.1 2.9 2.1 5-.1 1.4-2 2.1-3.1 1.8-4.6-.4-.9-1.1-2.5.3-4.1.3-.6 1.5-2.9 1.2-4.4-.3-1.5-.6-2.7-1-3.6-.3-.5.3-1.5 1.9-.9.3.2 2.3.1 3 .7s2.1 1.4 3.9.6c1.8-.9 5.9-1 5.4 3.1-.1.6.6 3.5.7 4.9.2 2.9-.4 7.9-.6 9.3-.2 3.7-.4 17.4.2 22.5.6 5.2.3 8.1-.7 9.9-.6 1.3-.7 2.6.2 3.7.9 1.1 1.5 8.5.6 11.7-.3 2.5-.8 6.6.1 9.7.3 2.4-.6 9.1-.8 11.7.1 1.6.5 7-1.9 9.5-.7 1-4.2 2.9-.6 5 1.2.9 2.5 4.2 1.1 6.4-.2.8-.6 1.8.6 2.7 1.1.9.3 2.9-1 4.7-.2 1.2-1.3 3.8-.3 6.7 1 3.4 1.1 5.9-.3 10.5-.3 1.1-.6 2.6.2 3.6s.5 2.5-.7 3.9c-.5 1.1-.5 4.5 1.5 6.2.9.9.8 2.7.5 3.9-.3 1.2-1.1 4.3-1.1 5.6-.3 1.4-1.2 1.9-2.7 2.1-1.3.9-2.5 2-5.3 1.9-.6.1-4.6 1.8-3.2-2.5.5-3.8-.6-15.2-1.7-18.1-.8-1.3-1.5-3.4-2.4.7-.2 3.2 0 7.5-3.3 7-.9-.1-2.5 1.2-3.2 1.8-.7.6-5.3 1.4-5.7-2.1-.3-2.2-.3-9.9-.5-11.5-.7-2.4-.9-3.5-2.7-2.7-.7.4-2.7.7-3.3-.7-.3-1.5-.2-2.3-1.7-2.6-1.1 0-2.2.7-.9 2.1.8 1 2.1 1.7 1.7 4.4-.2 1.2-1.3 1.8-2.1 2.1-.5.3-1 1.4-.2 2.9.8 1.6.6 3.6-.3 4.2-.3.4-.7.9.1 1.5.8.6 1.4 1.5-.2 2.2-.5.5-2.5 2.7-2.6 6 0 .7 0 2.3.5 3 .5.7 1 1.4.1 2.3-.4.6-.6 2.1-1.1 2.7-.5.7-1 1.4-1 2.3-.2.7-.5 3.5-.5 4.3-.2.7 0 1.8-3.6 1.7-1.6.1-2.4-.2-2.9.1-.5.3-1.9.8-3.4.8-1.1-.2-1.1-1.1-1.5-1.4-.5-.3-1.1-1.3-1.1-2.6s0-6.9-.4-8c-.4-1-.3-3-1.4-4.7-1-1.7-1.9-4.5-1.4-7 .1-1 .2-2 .6-2.4s.6-2.2 0-2.9-1.4-3.2-1.2-4.6c0-.8-.2-2-.6-2.6-.4-.5-1.1-2-.2-3.2.2-.5 0-3-.4-3.7-.4-.7-1.3-.8-1.6 0-.2 1.1-.2 2.6.2 3.8.4 1.2 1.1 2.1-.1 3.8-.1.8-.2 1.6-.2 2.5 0 1.1-1.8 4.9-7 5.1-.7.1-2.2.1-2.8.4-.8.2-2.7 0-3.5-1.1-.2-.6-1.3-1.9-2.7-1.2-.9.3-2.7.9-5.3 1-2.6 0-4-.8-4.6-1.6-.6-.8-.4-1.8.1-2.4s.2-2.2-.5-2.5c-.6-.5-1.3-1.5-1.3-2.4.1-1.2 1-2.9.9-4-.2-.6-.6-1.4-.9-1.8-.4-.4-2.4-1.2-3.3.4-.3.8-.7 2.1-.6 2.8.1.7 1.1 3.4-.6 5.4-.5.7-2.7 3.1-5.1 3.5-1.3.4-3.6.7-4.4 1.3-.6.5-1.5 1.4-1.9 2.5-.3.4-.9.7-2-.2-.3-.2-1.2-.1-1 .8.1.9.9 2.1.9 2.9 0 1.1.4 2.8-1.5 4.5-.4.4-2.6 1-2.7 2.5-.1.9.1 2.2-1.1 3.6-1.2 1.3-1.1 1.2-1.1 1.5-.1.3-.7.7-1-.1-.3-.8-.5-2.7-.5-3.7-.1-.6-.2-2-2.6-3.3-.7-.6-2.6-2-2.9-5.4-.2-1.5-.4-3.8-.8-4.4-.4-.6-1.4-1.1-2 .1-.3 1-.8 4.9-.2 5.7.6.8 2.7 2.5-.3 4.9-.7.5-1.8.9-1.8 2.6-.1 1.1.2 2.9-4 3-1 0-3.1-.9-3.3-3 0-.8.4-1.8 1.2-1.7.3 0 1.3-.1.8-1-.4-.4-3.2-2.8-3.2-4.6.1-1.3-.2-6.9-.5-8.4-.1-1 .1-2.7.3-3.1.2-.6-.1-1.4-.7-1.6-.4 0-.9.4-1.2 1.4-.3 1-.5 3.4-1 4.7-.6 1.1-1 1.3-1 2.4 0 1.1-.1 2-.9 2.3-.7.3-1.8.4-2.8-.4-.9-.4-3.6-2.3-3.5-8.5.1-5.3-.8-19.6-.4-23.5.5-3.9 1.3-8.9.9-11.3-.4-2.4-1.5-8.9-1.3-14.9.2-2.2 1.8-14.5 1-17.2-.8-2.7-3.2-7.9-.9-14.6.4-2.8-.9-22.1-1.1-24s-1-5.8-1-7c.1-.6.6-1.6 1.7-.8.3.3 1.3 1.7 1.3-.1.1-3.7.1-5-.2-6.5-.3-1.5-.6-6.7-.3-8.6 0-.5-.7-3.5-2.3-3.8z"/><path fill="#FFF" d="M47.6 97.8c-1.3-.5-2.7-1.1-2.7-2.4 0-1.3.5-1.3 1.6-1.3.3 0 1.2.5 1.2-.6 0-.5 0-1 1.1-1 .6 0 2.5-1 2.5-2.2 0-.7-.1-1.4.3-1.4.3 0 .7 0 1.4 1.5.6 1.5 1.1 1.7 1.9 2 .7.1 3 .6 4.2-.5 1.5-.9 3.4-1.9 4.9-.8 1.4.3 5.5.3 7.4-.1 2.1-.6 5.8-1.3 7.4-1.4 3.3 0 7.9 0 9.3-1.7 1.1-1.7 1.6-3.3 2.5-3.2.7-.1 1.5.5 1.7 2.6.1.5.4 1.2 3 .9s4.3-.7 5.4-1.6c1.9-1.5 3.4-3.2 3.4-3.2.7-.8 3.1-2.2 3.7.3.3 1.1.2 3.3.9 4 .7.4 1.6 1.1 2.4 1.1.7 0 2.4.1 3.4 1.5.7.1 1.2.2 1.8-.7.5-.9.8-.3 1.3-.1.7.2 3.4.2 4.5.3.9.3 1.9.3 1.8 2.7.1 1 .1 2.3.1 2.7s.7.8 1.4.8c2 .1 6.8-.6 8.1.9.9.8 1.4 1.3 2.1 1.6.7.3 1.1.9 1.1 2.3s.6 4.7 3.4 4.7h7c1.1 0 1.8.1 1.9 1.8.2 2.2-.9 10.3-.6 12.6.6 3.1 1.5 15.6 1.5 17.7.1 3.5.1 17.3-.1 19.4-.1 4.2 0 9.6-.3 10.9-.1 1.3.4 3.4.6 4.6.1 1.4-.1 3.9-.6 5.3s.5 4.2.9 5.3c.4.8.7 3.2.2 5.3-.2 1.6-.2 2.4-.5 2.9 0 1.1.5 3-1.3 3.7-.1 1.1-.8 4.8-.8 5.9 0 .7-.1 1.7 0 2.2.1.5.6.5.8 0 .2-1.9.7-5.1.6-6.3 0-.7.3-1.7.9-2.2.6-.6 1.5-1.2 1.7-2.3.2-1.1.6-1.3.1-2.2-.3-.8-1.2-4.4.2-7.2.5-.6.8-.6 1.3-1s.4-1.3.4-2 .1-2.3-.5-3.4c-.1-.4-.3-1.3.4-2.2.8-1.1 1.3-2.2.8-3.2s-.7-2.5.1-2.9c.8-.5.9-1.5.4-2.8s-.7-6.7.1-7.9c.4-.9.3-1.9.3-2.4s.6-1.5 1.2-2.7c.3-.8-.1-4.6-.8-6-.6-1.4-.5-2.9.5-3.7.6-1.1 1.1-2.5.8-3.5-.2-1.1-.7-2.9 0-4.6.3-2.1.5-4.3.3-5.6.1-1 .9-2.1 1.7-2.8.8-.7.6-2 .5-2.6 0-.8.8-1.9 1.1-2.6s-.1-3.7-.5-4.5c-.4-.8-1.5-3.9 1.6-3.6 1.6.5 3.6.6 4.9.1.6-.4 2.4-.5 1.7-2.3-.4-.8.1-2.1 1.7-1.9 2.5 0 4.9-.4 6 .7 1.2 1.1 2.9 2.1 5-.1 1.4-2 2.1-3.1 1.8-4.6-.4-.9-1.1-2.5.3-4.1.3-.6 1.5-2.9 1.2-4.4-.3-1.5-.6-2.7-1-3.6-.3-.5.3-1.5 1.9-.9.3.2 2.3.1 3 .7s2.1 1.4 3.9.6c1.8-.9 5.9-1 5.4 3.1-.1.6.6 3.5.7 4.9.2 2.9-.4 7.9-.6 9.3-.2 3.7-.4 17.4.2 22.5.6 5.2.3 8.1-.7 9.9-.6 1.3-.7 2.6.2 3.7.9 1.1 1.5 8.5.6 11.7-.3 2.5-.8 6.6.1 9.7.3 2.4-.6 9.1-.8 11.7.1 1.6.5 7-1.9 9.5-.7 1-4.2 2.9-.6 5 1.2.9 2.5 4.2 1.1 6.4-.2.8-.6 1.8.6 2.7 1.1.9.3 2.9-1 4.7-.2 1.2-1.3 3.8-.3 6.7 1 3.4 1.1 5.9-.3 10.5-.3 1.1-.6 2.6.2 3.6s.5 2.5-.7 3.9c-.5 1.1-.5 4.5 1.5 6.2.9.9.8 2.7.5 3.9-.3 1.2-1.1 4.3-1.1 5.6-.3 1.4-1.2 1.9-2.7 2.1-1.3.9-2.5 2-5.3 1.9-.6.1-4.6 1.8-3.2-2.5.5-3.8-.6-15.2-1.7-18.1-.8-1.3-1.5-3.4-2.4.7-.2 3.2 0 7.5-3.3 7-.9-.1-2.5 1.2-3.2 1.8-.7.6-5.3 1.4-5.7-2.1-.3-2.2-.3-9.9-.5-11.5-.7-2.4-.9-3.5-2.7-2.7-.7.4-2.7.7-3.3-.7-.3-1.5-.2-2.3-1.7-2.6-1.1 0-2.2.7-.9 2.1.8 1 2.1 1.7 1.7 4.4-.2 1.2-1.3 1.8-2.1 2.1-.5.3-1 1.4-.2 2.9.8 1.6.6 3.6-.3 4.2-.3.4-.7.9.1 1.5.8.6 1.4 1.5-.2 2.2-.5.5-2.5 2.7-2.6 6 0 .7 0 2.3.5 3 .5.7 1 1.4.1 2.3-.4.6-.6 2.1-1.1 2.7-.5.7-1 1.4-1 2.3-.2.7-.5 3.5-.5 4.3-.2.7 0 1.8-3.6 1.7-1.6.1-2.4-.2-2.9.1-.5.3-1.9.8-3.4.8-1.1-.2-1.1-1.1-1.5-1.4-.5-.3-1.1-1.3-1.1-2.6s0-6.9-.4-8c-.4-1-.3-3-1.4-4.7-1-1.7-1.9-4.5-1.4-7 .1-1 .2-2 .6-2.4s.6-2.2 0-2.9-1.4-3.2-1.2-4.6c0-.8-.2-2-.6-2.6-.4-.5-1.1-2-.2-3.2.2-.5 0-3-.4-3.7-.4-.7-1.3-.8-1.6 0-.2 1.1-.2 2.6.2 3.8.4 1.2 1.1 2.1-.1 3.8-.1.8-.2 1.6-.2 2.5 0 1.1-1.8 4.9-7 5.1-.7.1-2.2.1-2.8.4-.8.2-2.7 0-3.5-1.1-.2-.6-1.3-1.9-2.7-1.2-.9.3-2.7.9-5.3 1-2.6 0-4-.8-4.6-1.6-.6-.8-.4-1.8.1-2.4s.2-2.2-.5-2.5c-.6-.5-1.3-1.5-1.3-2.4.1-1.2 1-2.9.9-4-.2-.6-.6-1.4-.9-1.8-.4-.4-2.4-1.2-3.3.4-.3.8-.7 2.1-.6 2.8.1.7 1.1 3.4-.6 5.4-.5.7-2.7 3.1-5.1 3.5-1.3.4-3.6.7-4.4 1.3-.6.5-1.5 1.4-1.9 2.5-.3.4-.9.7-2-.2-.3-.2-1.2-.1-1 .8.1.9.9 2.1.9 2.9 0 1.1.4 2.8-1.5 4.5-.4.4-2.6 1-2.7 2.5-.1.9.1 2.2-1.1 3.6-1.2 1.3-1.1 1.2-1.1 1.5-.1.3-.7.7-1-.1-.3-.8-.5-2.7-.5-3.7-.1-.6-.2-2-2.6-3.3-.7-.6-2.6-2-2.9-5.4-.2-1.5-.4-3.8-.8-4.4-.4-.6-1.4-1.1-2 .1-.3 1-.8 4.9-.2 5.7.6.8 2.7 2.5-.3 4.9-.7.5-1.8.9-1.8 2.6-.1 1.1.2 2.9-4 3-1 0-3.1-.9-3.3-3 0-.8.4-1.8 1.2-1.7.3 0 1.3-.1.8-1-.4-.4-3.2-2.8-3.2-4.6.1-1.3-.2-6.9-.5-8.4-.1-1 .1-2.7.3-3.1.2-.6-.1-1.4-.7-1.6-.4 0-.9.4-1.2 1.4-.3 1-.5 3.4-1 4.7-.6 1.1-1 1.3-1 2.4 0 1.1-.1 2-.9 2.3-.7.3-1.8.4-2.8-.4-.9-.4-3.6-2.3-3.5-8.5.1-5.3-.8-19.6-.4-23.5.5-3.9 1.3-8.9.9-11.3-.4-2.4-1.5-8.9-1.3-14.9.2-2.2 1.8-14.5 1-17.2-.8-2.7-3.2-7.9-.9-14.6.4-2.8-.9-22.1-1.1-24s-1-5.8-1-7c.1-.6.6-1.6 1.7-.8.3.3 1.3 1.7 1.3-.1.1-3.7.1-5-.2-6.5-.3-1.5-.6-6.7-.3-8.6 0-.5-.7-3.5-2.3-3.8z"/><path fill-rule="evenodd" fill="#FFF" d="M304.9 209.9c0-2.6-1.4-3.9-4.1-3.9h-3.3v7.8h2.8c1.2 0 2.3-.3 3.3-1 .8-.7 1.3-1.7 1.3-2.9zm3.4 19.5c0-2.8-2.1-4.2-6.2-4.2h-4.6v8.5h4.4c4.2 0 6.4-1.5 6.4-4.3z"/></g></svg>