<svg version="1.2" baseProfile="tiny" xmlns="http://www.w3.org/2000/svg" viewBox="0 0 266.62 204.02"><path fill="none" d="M1.13 203.61v-13.97h1.26v12.77h4.79v1.2H1.13"/><path fill="#B0B4B6" d="M1.13 203.61v-13.97h1.26v12.77h4.79v1.2H1.13z"/><path fill="none" d="M8.48 203.61l6.14-14.53 5.88 14.53h-1.39l-1.78-4.74h-5.71l-1.85 4.74H8.48"/><path fill="none" d="M12.05 197.79h4.87l-2.39-6.08-2.48 6.08"/><path fill="#B0B4B6" d="M8.48 203.61l6.14-14.53 5.88 14.53h-1.39l-1.78-4.74h-5.71l-1.85 4.74H8.48zm3.57-5.82h4.87l-2.39-6.08-2.48 6.08z"/><path fill="none" d="M23.25 203.61v-14.57l9.9 11.7v-11.1h1.18v14.38l-9.88-11.71v11.3h-1.2"/><path fill="#B0B4B6" d="M23.25 203.61v-14.57l9.9 11.7v-11.1h1.18v14.38l-9.88-11.71v11.3h-1.2z"/><path fill="none" d="M39 203.61v-14h2.17c1.39-.04 2.77.05 4.14.28.77.17 1.48.51 2.1 1 .78.63 1.39 1.45 1.77 2.38.42 1.06.63 2.2.61 3.34.02 1.15-.19 2.28-.61 3.35-.66 1.67-2.09 2.91-3.83 3.33-1.23.24-2.49.34-3.75.3H39v.02z"/><path fill="none" d="M40.28 202.51h1.78c1.03.04 2.06-.04 3.07-.24.57-.15 1.1-.43 1.54-.83.59-.55 1.05-1.24 1.33-2 .61-1.82.61-3.79 0-5.61-.27-.77-.73-1.45-1.34-2-.47-.41-1.03-.7-1.63-.85-1.11-.2-2.24-.28-3.37-.24h-1.38v11.77z"/><path fill="#B0B4B6" d="M39 203.61v-14h2.17c1.39-.04 2.77.05 4.14.28.77.17 1.48.51 2.1 1 .78.63 1.39 1.45 1.77 2.38.42 1.06.63 2.2.61 3.34.02 1.15-.19 2.28-.61 3.35-.66 1.67-2.09 2.91-3.83 3.33-1.23.24-2.49.34-3.75.3l-2.6.02zm1.27-1.1h1.78c1.03.04 2.06-.04 3.07-.24.57-.15 1.1-.43 1.54-.83.59-.55 1.05-1.24 1.33-2 .61-1.82.61-3.79 0-5.61-.27-.77-.73-1.45-1.34-2-.47-.41-1.03-.7-1.63-.85-1.11-.2-2.24-.28-3.37-.24h-1.37l-.01 11.77z"/><path fill="none" d="M52.75 201.26l1.09-.58c.15.63.5 1.19 1 1.6.52.38 1.15.58 1.8.56.77.04 1.52-.24 2.07-.78.53-.59.79-1.37.75-2.16.02-.6-.16-1.19-.51-1.68-.61-.65-1.34-1.18-2.15-1.55-1.05-.49-2-1.17-2.8-2-.46-.56-.71-1.27-.7-2-.03-.91.33-1.8 1-2.42.73-.67 1.71-1.01 2.7-.95.64-.02 1.26.14 1.82.45.54.32.98.78 1.27 1.33l-1 .59c-.19-.38-.5-.7-.87-.92-.41-.22-.86-.32-1.32-.31-.61-.03-1.2.19-1.64.6-.42.44-.64 1.03-.61 1.64 0 1 .81 1.89 2.42 2.74l.67.35c.92.44 1.74 1.08 2.39 1.86.43.68.64 1.47.6 2.27-.04 2.3-1.94 4.12-4.24 4.08-.78-.01-1.55-.25-2.2-.68-.7-.52-1.23-1.23-1.54-2.04z"/><path fill="#B0B4B6" d="M52.75 201.26l1.09-.58c.15.63.5 1.19 1 1.6.52.38 1.15.58 1.8.56.77.04 1.52-.24 2.07-.78.53-.59.79-1.37.75-2.16.02-.6-.16-1.19-.51-1.68-.61-.65-1.34-1.18-2.15-1.55-1.05-.49-2-1.17-2.8-2-.46-.56-.71-1.27-.7-2-.03-.91.33-1.8 1-2.42.73-.67 1.71-1.01 2.7-.95.64-.02 1.26.14 1.82.45.54.32.98.78 1.27 1.33l-1 .59c-.19-.38-.5-.7-.87-.92-.41-.22-.86-.32-1.32-.31-.61-.03-1.2.19-1.64.6-.42.44-.64 1.03-.61 1.64 0 1 .81 1.89 2.42 2.74l.67.35c.92.44 1.74 1.08 2.39 1.86.43.68.64 1.47.6 2.27-.04 2.3-1.94 4.12-4.24 4.08-.78-.01-1.55-.25-2.2-.68-.7-.52-1.23-1.23-1.54-2.04z"/><path fill="none" d="M76 192.19c-.63-.55-1.35-1-2.13-1.32-.73-.29-1.51-.43-2.29-.43-1.65-.07-3.24.56-4.41 1.72-1.15 1.2-1.76 2.81-1.69 4.47-.01.85.13 1.69.42 2.49.27.75.7 1.44 1.26 2 .55.55 1.2.98 1.92 1.28.74.3 1.53.44 2.33.44s1.59-.14 2.34-.41c.78-.29 1.52-.7 2.17-1.22v1.49c-.68.43-1.41.77-2.18 1-1.7.51-3.52.44-5.18-.2-.88-.35-1.69-.87-2.37-1.53-.67-.67-1.2-1.47-1.55-2.35-.7-1.89-.7-3.96 0-5.85.35-.88.88-1.68 1.56-2.34.68-.66 1.49-1.17 2.37-1.5.92-.37 1.89-.55 2.88-.55.84-.01 1.68.12 2.48.37.75.24 1.46.61 2.08 1.1l-.01 1.34z"/><path fill="#B0B4B6" d="M76 192.19c-.63-.55-1.35-1-2.13-1.32-.73-.29-1.51-.43-2.29-.43-1.65-.07-3.24.56-4.41 1.72-1.15 1.2-1.76 2.81-1.69 4.47-.01.85.13 1.69.42 2.49.27.75.7 1.44 1.26 2 .55.55 1.2.98 1.92 1.28.74.3 1.53.44 2.33.44s1.59-.14 2.34-.41c.78-.29 1.52-.7 2.17-1.22v1.49c-.68.43-1.41.77-2.18 1-1.7.51-3.52.44-5.18-.2-.88-.35-1.69-.87-2.37-1.53-.67-.67-1.2-1.47-1.55-2.35-.7-1.89-.7-3.96 0-5.85.35-.88.88-1.68 1.56-2.34.68-.66 1.49-1.17 2.37-1.5.92-.37 1.89-.55 2.88-.55.84-.01 1.68.12 2.48.37.75.24 1.46.61 2.08 1.1l-.01 1.34z"/><path fill="none" d="M78 203.61l6.14-14.53 5.87 14.53h-1.38l-1.79-4.74h-5.7l-1.85 4.74H78"/><path fill="none" d="M81.57 197.79h4.87l-2.39-6.08-2.48 6.08"/><path fill="#B0B4B6" d="M78 203.61l6.13-14.53L90 203.61h-1.37l-1.78-4.74h-5.71l-1.85 4.74H78zm3.57-5.82h4.86l-2.38-6.08-2.48 6.08z"/><path fill="none" d="M92.77 203.61v-14h2.55c.74-.02 1.49.03 2.22.16.44.1.86.28 1.23.53.44.34.79.79 1 1.31.25.58.38 1.21.37 1.84.1 1.11-.32 2.2-1.14 2.96-1.04.71-2.28 1.03-3.53.93H94v6.27h-1.23z"/><path fill="none" d="M94 196.22h.87c1.07.11 2.15-.1 3.1-.59.57-.5.87-1.24.8-2 .01-.39-.06-.77-.18-1.14-.12-.34-.3-.66-.54-.93-.27-.29-.62-.5-1-.59-.71-.15-1.44-.21-2.16-.18H94v5.43z"/><path fill="#B0B4B6" d="M92.77 203.61v-14h2.55c.74-.02 1.49.03 2.22.16.44.1.86.28 1.23.53.44.34.79.79 1 1.31.25.58.38 1.21.37 1.84.1 1.11-.32 2.2-1.14 2.96-1.04.71-2.28 1.03-3.53.93H94v6.27h-1.23zm1.23-7.39h.87c1.07.11 2.15-.1 3.1-.59.57-.5.87-1.24.8-2 .01-.39-.06-.77-.18-1.14-.12-.34-.3-.66-.54-.93-.27-.29-.62-.5-1-.59-.71-.15-1.44-.21-2.16-.18H94v5.43z"/><path fill="none" d="M103.73 203.61v-13.97h6.92v1.19H105v4.37h5.65v1.19H105v6.02h5.65v1.2h-6.92"/><path fill="#B0B4B6" d="M103.73 203.61v-13.97h6.92v1.19H105v4.37h5.65v1.19H105v6.02h5.65v1.2h-6.92z"/><path fill="none" d="M119.87 203.61l6.14-14.53 5.88 14.53h-1.39l-1.78-4.74h-5.71l-1.85 4.74h-1.29"/><path fill="none" d="M123.44 197.79h4.87l-2.39-6.08-2.48 6.08"/><path fill="#B0B4B6" d="M119.87 203.61l6.13-14.53 5.88 14.53h-1.38l-1.78-4.74H123l-1.85 4.74h-1.28zm3.57-5.82h4.87l-2.39-6.08-2.48 6.08z"/><path fill="none" d="M143.13 203.61h-1.55l-4.91-6.61h-.76v6.66h-1.27v-14h2.57c1.21-.09 2.41.24 3.4.94.8.73 1.21 1.78 1.13 2.86.05.96-.32 1.89-1 2.57-.73.66-1.68.99-2.66.94l5.05 6.64z"/><path fill="none" d="M135.91 190.74v5.17h1.28c.87.08 1.74-.12 2.48-.57.51-.5.77-1.21.7-1.93.08-.76-.19-1.52-.73-2.06-.73-.47-1.59-.69-2.45-.61h-1.28z"/><path fill="#B0B4B6" d="M143.13 203.61h-1.55l-4.91-6.61h-.76v6.66h-1.27v-14h2.57c1.21-.09 2.41.24 3.4.94.8.73 1.21 1.78 1.13 2.86.05.96-.32 1.89-1 2.57-.73.66-1.68.99-2.66.94l5.05 6.64zm-7.22-12.87v5.17h1.28c.87.08 1.74-.12 2.48-.57.51-.5.77-1.21.7-1.93.08-.76-.19-1.52-.73-2.06-.73-.47-1.59-.69-2.45-.61h-1.28z"/><path fill="none" d="M157.37 192.19c-.63-.56-1.35-1-2.13-1.32-.73-.29-1.51-.44-2.29-.43-1.64-.06-3.24.56-4.4 1.72-1.15 1.2-1.76 2.81-1.69 4.47-.01.85.13 1.69.41 2.49.27.75.71 1.43 1.27 2 .55.55 1.2.98 1.92 1.28.74.29 1.53.44 2.32.44.8 0 1.6-.14 2.35-.41.78-.29 1.52-.7 2.17-1.22v1.49c-.68.43-1.41.77-2.18 1-1.7.51-3.52.44-5.18-.2-.89-.35-1.7-.87-2.38-1.53-.67-.67-1.2-1.47-1.54-2.35-.36-.93-.54-1.93-.53-2.93-.01-1 .17-1.99.54-2.92.35-.88.88-1.68 1.55-2.34.68-.65 1.49-1.17 2.37-1.5.92-.37 1.9-.55 2.89-.55.84-.01 1.68.12 2.48.37.75.24 1.45.61 2.07 1.1l-.02 1.34z"/><path fill="#B0B4B6" d="M157.37 192.19c-.63-.56-1.35-1-2.13-1.32-.73-.29-1.51-.44-2.29-.43-1.64-.06-3.24.56-4.4 1.72-1.15 1.2-1.76 2.81-1.69 4.47-.01.85.13 1.69.41 2.49.27.75.71 1.43 1.27 2 .55.55 1.2.98 1.92 1.28.74.29 1.53.44 2.32.44.8 0 1.6-.14 2.35-.41.78-.29 1.52-.7 2.17-1.22v1.49c-.68.43-1.41.77-2.18 1-1.7.51-3.52.44-5.18-.2-.89-.35-1.7-.87-2.38-1.53-.67-.67-1.2-1.47-1.54-2.35-.36-.93-.54-1.93-.53-2.93-.01-1 .17-1.99.54-2.92.35-.88.88-1.68 1.55-2.34.68-.65 1.49-1.17 2.37-1.5.92-.37 1.9-.55 2.89-.55.84-.01 1.68.12 2.48.37.75.24 1.45.61 2.07 1.1l-.02 1.34z"/><path fill="none" d="M161.31 203.61v-13.97h1.27v5.67h7.61v-5.67h1.27v13.97h-1.27v-7.22h-7.61v7.22h-1.27"/><path fill="#B0B4B6" d="M161.31 203.61v-13.97h1.27v5.67h7.61v-5.67h1.27v13.97h-1.27v-7.22h-7.61v7.22h-1.27z"/><path fill="none" d="M176.12 203.61v-13.97h1.27v13.97h-1.27"/><path fill="#B0B4B6" d="M176.12 203.61v-13.97h1.27v13.97h-1.27z"/><path fill="none" d="M184.55 203.61v-12.78h-3.85v-1.19h8.97v1.19h-3.85v12.78h-1.27"/><path fill="#B0B4B6" d="M184.55 203.61v-12.78h-3.85v-1.19h8.97v1.19h-3.85v12.78h-1.27z"/><path fill="none" d="M192.97 203.61v-13.97h6.92v1.19h-5.65v4.37h5.65v1.19h-5.65v6.02h5.65v1.2h-6.92"/><path fill="#B0B4B6" d="M192.97 203.61v-13.97h6.92v1.19h-5.65v4.37h5.65v1.19h-5.65v6.02h5.65v1.2h-6.92z"/><path fill="none" d="M215.42 192.19c-.63-.55-1.35-1-2.13-1.32-.73-.29-1.51-.43-2.29-.43-1.65-.07-3.24.56-4.41 1.72-1.15 1.2-1.76 2.81-1.69 4.47-.01.85.13 1.69.42 2.49.27.75.7 1.44 1.26 2 .55.55 1.2.98 1.92 1.28.74.29 1.53.44 2.33.44s1.59-.14 2.34-.41c.78-.29 1.52-.7 2.17-1.22v1.49c-.68.43-1.41.77-2.18 1-1.7.51-3.52.44-5.18-.2-.88-.35-1.69-.87-2.37-1.53-.67-.67-1.2-1.47-1.55-2.35-.7-1.89-.7-3.96 0-5.85.35-.88.88-1.68 1.56-2.34.68-.66 1.49-1.17 2.37-1.5.92-.37 1.89-.55 2.88-.55.84-.01 1.68.12 2.48.37.75.24 1.46.61 2.08 1.1l-.01 1.34z"/><path fill="#B0B4B6" d="M215.42 192.19c-.63-.55-1.35-1-2.13-1.32-.73-.29-1.51-.43-2.29-.43-1.65-.07-3.24.56-4.41 1.72-1.15 1.2-1.76 2.81-1.69 4.47-.01.85.13 1.69.42 2.49.27.75.7 1.44 1.26 2 .55.55 1.2.98 1.92 1.28.74.29 1.53.44 2.33.44s1.59-.14 2.34-.41c.78-.29 1.52-.7 2.17-1.22v1.49c-.68.43-1.41.77-2.18 1-1.7.51-3.52.44-5.18-.2-.88-.35-1.69-.87-2.37-1.53-.67-.67-1.2-1.47-1.55-2.35-.7-1.89-.7-3.96 0-5.85.35-.88.88-1.68 1.56-2.34.68-.66 1.49-1.17 2.37-1.5.92-.37 1.89-.55 2.88-.55.84-.01 1.68.12 2.48.37.75.24 1.46.61 2.08 1.1l-.01 1.34z"/><path fill="none" d="M221.84 203.61v-12.78h-3.85v-1.19h8.97v1.19h-3.85v12.78h-1.27"/><path fill="#B0B4B6" d="M221.84 203.61v-12.78h-3.85v-1.19h8.97v1.19h-3.85v12.78h-1.27z"/><path fill="none" d="M230.21 189.64h1.25v9.12c-.09 1.11.25 2.21.94 3.08 1.69 1.33 4.07 1.33 5.76 0 .69-.87 1.03-1.97.94-3.08v-9.12h1.27v8.71c.12 1.52-.33 3.02-1.26 4.23-2.2 1.87-5.44 1.87-7.64 0-.93-1.21-1.38-2.71-1.26-4.23v-8.71z"/><path fill="#B0B4B6" d="M230.21 189.64h1.25v9.12c-.09 1.11.25 2.21.94 3.08 1.69 1.33 4.07 1.33 5.76 0 .69-.87 1.03-1.97.94-3.08v-9.12h1.27v8.71c.12 1.52-.33 3.02-1.26 4.23-2.2 1.87-5.44 1.87-7.64 0-.93-1.21-1.38-2.71-1.26-4.23v-8.71z"/><path fill="none" d="M253.46 203.61h-1.54L247 197h-.76v6.66H245v-14h2.56c1.21-.09 2.42.24 3.41.94.79.73 1.21 1.78 1.13 2.86.04.96-.32 1.89-1 2.57-.73.65-1.69.99-2.67.94l5.03 6.64z"/><path fill="none" d="M246.25 190.74v5.17h1.28c.86.08 1.73-.12 2.47-.57.52-.5.78-1.21.7-1.93.08-.76-.19-1.51-.72-2.06-.73-.47-1.59-.69-2.45-.61h-1.28z"/><path fill="#B0B4B6" d="M253.46 203.61h-1.54L247 197h-.76v6.66H245v-14h2.56c1.21-.09 2.42.24 3.41.94.79.73 1.21 1.78 1.13 2.86.04.96-.32 1.89-1 2.57-.73.65-1.69.99-2.67.94l5.03 6.64zm-7.21-12.87v5.17h1.28c.86.08 1.73-.12 2.47-.57.52-.5.78-1.21.7-1.93.08-.76-.19-1.51-.72-2.06-.73-.47-1.59-.69-2.45-.61h-1.28z"/><path fill="none" d="M256.49 203.61v-13.97h6.91v1.19h-5.64v4.37h5.64v1.19h-5.64v6.02h5.64v1.2h-6.91"/><path fill="#B0B4B6" d="M256.49 203.61v-13.97h6.91v1.19h-5.64v4.37h5.64v1.19h-5.64v6.02h5.64v1.2h-6.91z"/><path fill="none" d="M17.53 175.51h-3.68l-.85-6.24c-.06-.44-.12-.93-.17-1.47s-.09-1.12-.13-1.76c-.13.77-.31 1.54-.54 2.29l-.13.42-2 6.76H7.45l-2-6.76c0-.09-.04-.23-.12-.42-.23-.75-.41-1.51-.54-2.28 0 .54-.08 1.08-.14 1.62s-.11 1.07-.18 1.6l-.85 6.24H0l2.23-14.43h3.89l2.18 7.44.08.26c.18.56.31 1.13.39 1.71.03-.29.07-.58.14-.86.08-.31.17-.69.3-1.13l2.2-7.42h3.9l2.22 14.43z"/><path fill="#B0B4B6" d="M17.53 175.51h-3.68l-.85-6.24c-.06-.44-.12-.93-.17-1.47s-.09-1.12-.13-1.76c-.13.77-.31 1.54-.54 2.29-.13.42-2.09 7.18-2.09 7.18H7.45l-2-6.76c-.28-.88-.5-1.79-.66-2.7 0 .54-.08 1.08-.14 1.62s-.11 1.07-.18 1.6l-.85 6.24H0l2.23-14.43h3.89l2.18 7.44c.22.65.38 1.32.47 2 .03-.29.07-.58.14-.86.08-.31.17-.69.3-1.13l2.2-7.42h3.9l2.22 14.4z"/><path fill="none" d="M20.07 175.51v-14.43h8.85v3.16h-5.01v2.51h4.72v3.09h-4.72v2.44h5.01v3.23h-8.85"/><path fill="#B0B4B6" d="M20.07 175.51v-14.43h8.85v3.16h-5.01v2.51h4.72v3.09h-4.72v2.44h5.01v3.23h-8.85z"/><path fill="none" d="M31.95 175.51v-14.43h3.93v11.06h4.89v3.37h-8.82"/><path fill="#B0B4B6" d="M31.95 175.51v-14.43h3.93v11.06h4.89v3.37h-8.82z"/><path fill="none" d="M43.22 175.51v-14.43h3.97v14.43h-3.97"/><path fill="#B0B4B6" d="M43.22 175.51v-14.43h3.97v14.43h-3.97z"/><path fill="none" d="M50.79 175.51v-14.43h3.93v11.06h4.89v3.37h-8.82"/><path fill="#B0B4B6" d="M50.79 175.51v-14.43h3.93v11.06h4.89v3.37h-8.82z"/><path fill="none" d="M61.96 175.51v-14.43h3.93v11.06h4.89v3.37h-8.82"/><path fill="#B0B4B6" d="M61.96 175.51v-14.43h3.93v11.06h4.89v3.37h-8.82z"/><path fill="none" d="M87.59 168.33c.01 1-.19 1.99-.57 2.91-.39.91-.95 1.74-1.66 2.44-.73.71-1.59 1.26-2.53 1.64-1.89.77-4.02.77-5.91 0-.93-.38-1.78-.93-2.49-1.64-2.96-2.83-3.06-7.52-.23-10.48.08-.08.15-.16.23-.23.71-.71 1.56-1.26 2.49-1.64.95-.39 1.97-.59 3-.58 1.03-.01 2.05.19 3 .58.91.39 1.74.96 2.44 1.67 1.45 1.41 2.25 3.34 2.23 5.36v-.03z"/><path fill="none" d="M79.88 172.57c1.04.03 2.04-.42 2.71-1.21.72-.83 1.1-1.9 1.07-3 .03-1.1-.36-2.17-1.09-3-1.33-1.49-3.62-1.61-5.11-.28-.1.09-.19.18-.28.28-1.41 1.78-1.41 4.3 0 6.08.69.76 1.68 1.17 2.7 1.13z"/><path fill="#B0B4B6" d="M87.59 168.33c.01 1-.19 1.99-.57 2.91-.39.91-.95 1.74-1.66 2.44-.73.71-1.59 1.26-2.53 1.64-1.89.77-4.02.77-5.91 0-.93-.38-1.78-.93-2.49-1.64-2.96-2.83-3.06-7.52-.23-10.48.08-.08.15-.16.23-.23.71-.71 1.56-1.26 2.49-1.64.95-.39 1.97-.59 3-.58 1.03-.01 2.05.19 3 .58.91.39 1.74.96 2.44 1.67 1.45 1.41 2.25 3.34 2.23 5.36v-.03zm-7.71 4.24c1.04.03 2.04-.42 2.71-1.21.72-.83 1.1-1.9 1.07-3 .03-1.1-.36-2.17-1.09-3-1.33-1.49-3.62-1.61-5.11-.28-.1.09-.19.18-.28.28-1.41 1.78-1.41 4.3 0 6.08.69.76 1.68 1.17 2.7 1.13z"/><path fill="none" d="M90.65 169.68v-2.92h2.92v2.92h-2.92"/><path fill="#B0B4B6" d="M90.65 169.68v-2.92h2.92v2.92h-2.92z"/><path fill="none" d="M98.15 175.51v-14.43h3.95c1.14-.03 2.29.03 3.42.16.58.08 1.15.26 1.67.54.51.27.94.68 1.22 1.19.29.53.43 1.12.42 1.72.04.71-.19 1.4-.63 1.95-.54.56-1.24.94-2 1.1.91.03 1.77.42 2.4 1.08.61.72.92 1.63.87 2.57.01.7-.15 1.39-.49 2-.32.58-.8 1.06-1.39 1.36-.57.29-1.19.48-1.83.57-1.18.13-2.36.19-3.55.16l-4.06.03z"/><path fill="none" d="M101.8 166.85h.79c.68.05 1.37-.06 2-.32.37-.24.58-.67.54-1.11.05-.45-.15-.89-.51-1.15-.63-.28-1.32-.39-2-.33h-.85l.03 2.91zM101.8 172.57h1.38c.69.05 1.37-.07 2-.35.39-.25.62-.7.58-1.17.06-.49-.14-.97-.53-1.27-.62-.3-1.31-.43-2-.36h-1.43v3.15z"/><path fill="#B0B4B6" d="M98.15 175.51v-14.43h3.95c1.14-.03 2.29.03 3.42.16.58.08 1.15.26 1.67.54.51.27.94.68 1.22 1.19.29.53.43 1.12.42 1.72.04.71-.19 1.4-.63 1.95-.54.56-1.24.94-2 1.1.91.03 1.77.42 2.4 1.08.61.72.92 1.63.87 2.57.01.7-.15 1.39-.49 2-.32.58-.8 1.06-1.39 1.36-.57.29-1.19.48-1.83.57-1.18.13-2.36.19-3.55.16l-4.06.03zm3.65-8.66h.79c.68.05 1.37-.06 2-.32.37-.24.58-.67.54-1.11.05-.45-.15-.89-.51-1.15-.63-.28-1.32-.39-2-.33h-.85l.03 2.91zm0 5.72h1.38c.69.05 1.37-.07 2-.35.39-.25.62-.7.58-1.17.06-.49-.14-.97-.53-1.27-.62-.3-1.31-.43-2-.36h-1.43v3.15z"/><path fill="none" d="M110.57 175.51l4.98-14.43h4.93l4.99 14.43h-3.91l-.73-2.58h-5.59l-.75 2.58h-3.92"/><path fill="none" d="M116.09 170.12H120l-1.47-4.76c0-.15-.11-.38-.19-.7s-.18-.74-.3-1.24c-.09.35-.17.69-.25 1s-.17.63-.25.93l-1.45 4.77z"/><path fill="#B0B4B6" d="M110.57 175.51l5-14.43h4.93l5 14.43h-3.91l-.73-2.58h-5.59l-.75 2.58h-3.95zm5.52-5.39H120l-1.47-4.76c0-.15-.11-.38-.19-.7s-.18-.74-.3-1.24c-.09.35-.17.69-.25 1s-.17.63-.25.93l-1.45 4.77z"/><path fill="none" d="M126.83 161.08h3.93v7c0 1 0 1.77.07 2.22.04.39.13.77.27 1.13.15.37.43.67.79.85.87.39 1.87.39 2.74 0 .35-.18.63-.48.79-.85.14-.36.23-.74.27-1.13.05-.45.08-1.19.08-2.22v-7h3.91v7.63c.04 1.18-.06 2.35-.29 3.51-.18.71-.52 1.37-1 1.92-.53.61-1.22 1.07-2 1.32-2.05.59-4.23.59-6.28 0-.77-.25-1.47-.71-2-1.32-.47-.56-.81-1.21-1-1.92-.23-1.16-.33-2.33-.29-3.51l.01-7.63z"/><path fill="#B0B4B6" d="M126.83 161.08h3.93v7c0 1 0 1.77.07 2.22.04.39.13.77.27 1.13.15.37.43.67.79.85.87.39 1.87.39 2.74 0 .35-.18.63-.48.79-.85.14-.36.23-.74.27-1.13.05-.45.08-1.19.08-2.22v-7h3.91v7.63c.04 1.18-.06 2.35-.29 3.51-.18.71-.52 1.37-1 1.92-.53.61-1.22 1.07-2 1.32-2.05.59-4.23.59-6.28 0-.77-.25-1.47-.71-2-1.32-.47-.56-.81-1.21-1-1.92-.23-1.16-.33-2.33-.29-3.51l.01-7.63z"/><path fill="none" d="M143.09 175.51v-14.43h8.85v3.16h-5.01v2.51h4.72v3.09h-4.72v2.44h5.01v3.23h-8.85"/><path fill="#B0B4B6" d="M143.09 175.51v-14.43h8.85v3.16h-5.01v2.51h4.72v3.09h-4.72v2.44h5.01v3.23h-8.85z"/><path fill="none" d="M155 175.51v-14.43h4.11c1.13-.04 2.26.03 3.37.22.59.13 1.15.38 1.64.74.52.4.93.92 1.2 1.51.28.63.42 1.31.42 2 .05.98-.24 1.94-.82 2.73-.61.74-1.46 1.24-2.4 1.4l3.93 5.81H162l-3.31-5.65v5.65l-3.69.02z"/><path fill="none" d="M158.65 167.9h.73c.65.05 1.3-.1 1.86-.43.41-.33.63-.84.59-1.36.06-.57-.15-1.14-.55-1.55-.55-.35-1.19-.51-1.84-.46h-.79v3.8z"/><path fill="#B0B4B6" d="M155 175.51v-14.43h4.11c1.13-.04 2.26.03 3.37.22.59.13 1.15.38 1.64.74.52.4.93.92 1.2 1.51.28.63.42 1.31.42 2 .05.98-.24 1.94-.82 2.73-.61.74-1.46 1.24-2.4 1.4l3.93 5.81H162l-3.31-5.65v5.65l-3.69.02zm3.69-7.61h.73c.65.05 1.3-.1 1.86-.43.41-.33.63-.84.59-1.36.06-.57-.15-1.14-.55-1.55-.55-.35-1.19-.51-1.84-.46h-.79v3.8z"/><path fill="none" d="M168.5 169.68v-2.92h2.92v2.92h-2.92"/><path fill="#B0B4B6" d="M168.5 169.68v-2.92h2.92v2.92h-2.92z"/><path fill="none" d="M186.46 161.64v4.3c-.45-.53-1-.98-1.61-1.32-.53-.28-1.12-.42-1.72-.42-1.04-.04-2.05.39-2.75 1.16-.7.84-1.05 1.91-1 3-.04 1.06.35 2.09 1.07 2.87.7.76 1.7 1.18 2.73 1.15.6 0 1.19-.14 1.72-.42.61-.34 1.16-.79 1.61-1.33V175c-.59.29-1.22.52-1.86.68-.61.15-1.24.23-1.87.23-.74.01-1.48-.09-2.19-.28-.66-.18-1.28-.47-1.84-.85-1.04-.69-1.89-1.63-2.46-2.74-.58-1.15-.87-2.42-.85-3.7-.01-1.03.17-2.04.54-3 .37-.92.92-1.76 1.62-2.46.65-.68 1.44-1.22 2.31-1.57.91-.36 1.89-.54 2.87-.53.63 0 1.26.08 1.87.23.62.15 1.23.36 1.81.63z"/><path fill="#B0B4B6" d="M186.46 161.64v4.3c-.45-.53-1-.98-1.61-1.32-.53-.28-1.12-.42-1.72-.42-1.04-.04-2.05.39-2.75 1.16-.7.84-1.05 1.91-1 3-.04 1.06.35 2.09 1.07 2.87.7.76 1.7 1.18 2.73 1.15.6 0 1.19-.14 1.72-.42.61-.34 1.16-.79 1.61-1.33V175c-.59.29-1.22.52-1.86.68-.61.15-1.24.23-1.87.23-.74.01-1.48-.09-2.19-.28-.66-.18-1.28-.47-1.84-.85-1.04-.69-1.89-1.63-2.46-2.74-.58-1.15-.87-2.42-.85-3.7-.01-1.03.17-2.04.54-3 .37-.92.92-1.76 1.62-2.46.65-.68 1.44-1.22 2.31-1.57.91-.36 1.89-.54 2.87-.53.63 0 1.26.08 1.87.23.62.15 1.23.36 1.81.63z"/><path fill="none" d="M187.41 175.51l4.98-14.43h4.93l4.99 14.43h-3.91l-.74-2.58h-5.59l-.75 2.58h-3.91"/><path fill="none" d="M192.92 170.12h3.92l-1.47-4.76c-.05-.15-.11-.38-.19-.7s-.18-.74-.31-1.24c-.08.35-.17.69-.25 1s-.16.63-.25.93l-1.45 4.77z"/><path fill="#B0B4B6" d="M187.41 175.51l5-14.43h4.93l5 14.43h-3.92l-.73-2.58h-5.59l-.75 2.58h-3.94zm5.51-5.39h3.92l-1.47-4.76c-.05-.15-.11-.38-.19-.7s-.18-.74-.31-1.24c-.08.35-.17.69-.25 1s-.16.63-.25.93l-1.45 4.77z"/><path fill="none" d="M204.11 175.51v-14.43h4.11c1.13-.04 2.26.03 3.37.22.59.13 1.15.38 1.64.74.52.4.93.92 1.2 1.51.28.63.42 1.31.42 2 .04.98-.25 1.94-.82 2.73-.61.74-1.46 1.24-2.41 1.4l3.94 5.81h-4.45l-3.31-5.65v5.65l-3.69.02z"/><path fill="none" d="M207.8 167.9h.73c.65.05 1.3-.1 1.86-.43.41-.33.62-.84.58-1.36.06-.57-.14-1.14-.54-1.55-.55-.35-1.19-.51-1.84-.46h-.79v3.8z"/><path fill="#B0B4B6" d="M204.11 175.51v-14.43h4.11c1.13-.04 2.26.03 3.37.22.59.13 1.15.38 1.64.74.52.4.93.92 1.2 1.51.28.63.42 1.31.42 2 .04.98-.25 1.94-.82 2.73-.61.74-1.46 1.24-2.41 1.4l3.94 5.81h-4.45l-3.31-5.65v5.65l-3.69.02zm3.69-7.61h.73c.65.05 1.3-.1 1.86-.43.41-.33.62-.84.58-1.36.06-.57-.14-1.14-.54-1.55-.55-.35-1.19-.51-1.84-.46h-.79v3.8z"/><path fill="none" d="M234 175.51h-3.68l-.85-6.24c-.06-.44-.11-.93-.16-1.47s-.1-1.12-.13-1.76c-.14.77-.32 1.54-.55 2.29l-.13.42-2 6.76H224l-2-6.76c0-.09-.04-.23-.12-.42-.24-.74-.42-1.51-.54-2.28 0 .54-.09 1.08-.14 1.62s-.12 1.07-.19 1.6l-.85 6.24h-3.66l2.23-14.43h3.9l2.18 7.44c.02.09.05.18.08.26.18.56.31 1.13.38 1.71.04-.29.09-.58.15-.86.07-.31.17-.69.29-1.13l2.2-7.42h3.91l2.18 14.43z"/><path fill="#B0B4B6" d="M234 175.51h-3.68l-.85-6.24c-.06-.44-.11-.93-.16-1.47s-.1-1.12-.13-1.76c-.14.77-.32 1.54-.55 2.29-.13.42-2.09 7.18-2.09 7.18H224l-2-6.76c-.29-.88-.51-1.78-.66-2.7 0 .54-.09 1.08-.14 1.62s-.12 1.07-.19 1.6l-.85 6.24h-3.66l2.23-14.43h3.9l2.18 7.44c.22.65.37 1.32.46 2 .04-.29.09-.58.15-.86.07-.31.17-.69.29-1.13l2.2-7.42h3.91l2.18 14.4z"/><path fill="none" d="M234.88 175.51l4.98-14.43h4.93l4.99 14.43h-3.91l-.73-2.58h-5.59l-.75 2.58h-3.92"/><path fill="none" d="M240.4 170.12h3.91l-1.47-4.76c-.05-.15-.11-.38-.19-.7s-.18-.74-.3-1.24c-.09.35-.17.69-.25 1s-.17.63-.25.93l-1.45 4.77z"/><path fill="#B0B4B6" d="M234.88 175.51l5-14.43h4.93l5 14.43h-3.91l-.73-2.58h-5.59l-.75 2.58h-3.95zm5.52-5.39h3.91l-1.47-4.76c-.05-.15-.11-.38-.19-.7s-.18-.74-.3-1.24c-.09.35-.17.69-.25 1s-.17.63-.25.93l-1.45 4.77z"/><path fill="none" d="M251.58 175.51v-14.43h3.8l5.45 7.42c.19.3.36.6.52.92.24.45.51 1 .8 1.63-.08-.6-.14-1.13-.18-1.6s-.05-.88-.05-1.24v-7.13h3.78v14.43h-3.78l-5.45-7.45c-.2-.29-.38-.59-.53-.91-.24-.46-.5-1-.79-1.62.08.61.14 1.15.18 1.61s0 .88 0 1.25v7.12h-3.75z"/><path fill="#B0B4B6" d="M251.58 175.51v-14.43h3.8l5.45 7.42c.19.3.36.6.52.92.24.45.51 1 .8 1.63-.08-.6-.14-1.13-.18-1.6s-.05-.88-.05-1.24v-7.13h3.78v14.43h-3.78l-5.45-7.45c-.2-.29-.38-.59-.53-.91-.24-.46-.5-1-.79-1.62.08.61.14 1.15.18 1.61s0 .88 0 1.25v7.12h-3.75z"/><g><path fill-rule="evenodd" fill="#B0B4B6" d="M266.62 138.39h-129.3V9.09h129.3v129.3zm-71.86-4.91H194l.48 3-1.18.19-.52-3.2h-10l.19 1.67-1.19.14-.19-1.81h-1.3v-1.2h1.15l-2.16-20.14-8.23 19.87h1.26v1.2h-1.71l-1.21 2.8-1.09-.43 1-2.34h-3.54l.48 1.15-1.14.43-.63-1.58h-4.54V132H164l-7.6-19.34-2.53 19.58h1.81v1.2h-2l-.34 2.82-1.19-.19.33-2.63h-9.74l-.39 2-1.14-.19.33-1.81h-1.72v-1.2h1.91l6.91-39.22h-1.27v-1.15h1.47l.3-2 1.18.19-.32 1.81h8.73L157 87.23l1.1-.43 9.68 25.35 7.56-19.09h-2v-1.19h2.53l1-2.69 1.12.42-.9 2.25h9l-.52-3.35 1.19-.19.58 3.54h2.53v1.19h-2.34l6.3 39.22h.91v1.2l.02.02zM227.63 121c0 8.19-4.75 12.29-14.24 12.28h-15.91v3.44h-1.19v-3.44h-2V132h2V93H193v-1.13h3.25v-4.45h1.19v4.45h12.67c9.26 0 13.89 3.71 13.89 11.13 0 3.7-1.27 6.21-3.82 7.55 2.17.79 4.06 2.21 5.42 4.08 1.35 1.85 2.06 4.08 2.03 6.37zm-14.28-16.58c0-2.1-1.14-3.15-3.4-3.15h-2.72v6.4h2.29c.96.05 1.91-.24 2.68-.83.77-.58 1.2-1.5 1.15-2.46v.04zm2.77 15.91c0-2.29-1.71-3.44-5.11-3.44h-3.78v7h3.58c3.54-.04 5.31-1.24 5.31-3.6v.04zm48.44-24.75l-.81.82c-.82-.8-1.75-1.47-2.77-2v9.31l1.38 1.63-.95.67-.43-.53v2h-1.2v-3.22c-2.31-1.89-5.24-2.85-8.22-2.7-2.94-.14-5.79.98-7.85 3.08-2.01 2.19-3.07 5.08-2.94 8.05-.14 2.81 1 5.53 3.1 7.4 2.16 1.78 4.9 2.7 7.69 2.58 3.15.02 6.19-1.12 8.56-3.19v-2.73h1.19v1.56l.95.72-.95 1v10l2.15-1.38.76 1c-.91.7-1.88 1.32-2.91 1.84v3.06h-1.19v-2.65c-2.96 1.5-6.2 2.36-9.51 2.53-6.4 0-11.66-2-15.79-6s-6.19-9.18-6.19-15.55c-.18-5.87 2.03-11.57 6.14-15.77 4.11-4.18 9.79-6.45 15.65-6.26 3.2-.03 6.37.54 9.36 1.68v-1.67H261V93c1.33.62 2.54 1.48 3.56 2.54v.04z"/><path fill="none" d="M266.62 138.39h-129.3V9.09h129.3v129.3"/><path fill="#B0B4B6" d="M2.93 12.74c-1.09-.44-2.19-.88-2.19-2s.44-1.1 1.31-1.1c.24 0 1 .45 1-.45 0-.44 0-.83.88-.83C4.44 8.39 6 7.58 6 6.57c0-.61-.06-1.16.27-1.16s.61 0 1.11 1.22S8.25 8 8.92 8.28c.6.11 2.48.5 3.42-.38 1.22-.78 2.76-1.55 4-.67 1.99.29 4.01.27 6-.05 2-.58 4.06-.97 6.13-1.18 2.71 0 6.47 0 7.63-1.38.88-1.39 1.27-2.71 2-2.6.56-.06 1.22.39 1.38 2.1.11.39.34 1 2.44.72s3.48-.56 4.41-1.33c1-.78 1.94-1.65 2.81-2.58.61-.66 2.54-1.82 3 .22.22.89.16 2.71.77 3.26.57.44 1.23.75 1.93.89 1.06-.06 2.09.39 2.77 1.21.6.11 1 .17 1.43-.55s.67-.27 1.05 0c.61.16 2.82.16 3.71.22.71.22 1.54.22 1.49 2.21.11.83 0 1.88.11 2.21s.6.66 1.16.66c1.66.07 5.57-.5 6.6.71.49.54 1.08.99 1.73 1.32.57.23.92.75.92 1.89s.56 3.82 2.8 3.82h5.69c.86 0 1.5.11 1.55 1.43.18 1.85-.74 8.4-.46 10.3.46 2.53 1.21 12.76 1.27 14.49.11 2.87.06 14.14-.12 15.87-.05 3.45 0 7.88-.23 8.91.06 1.26.23 2.51.52 3.74.07 1.44-.09 2.87-.46 4.26-.4 1.15.4 3.45.75 4.37.46 1.41.52 2.93.17 4.37-.03.82-.16 1.63-.4 2.41 0 .87.4 2.48-1.09 3-.12.91-.64 3.91-.64 4.83-.06.61-.06 1.22 0 1.83.12.41.46.41.64 0 .27-1.69.42-3.4.46-5.11.01-.67.27-1.32.74-1.8.67-.45 1.16-1.12 1.38-1.9.18-.92.46-1.09.06-1.84-.64-1.91-.58-3.99.17-5.86.32-.32.69-.6 1.1-.81.4-.29.28-1 .28-1.61.11-.94-.03-1.89-.4-2.76-.2-.61-.07-1.29.35-1.78.63-.86 1.09-1.84.69-2.59s-.58-2 .05-2.41.75-1.27.29-2.3-.57-5.52.06-6.45c.23-.64.31-1.32.23-2 .23-.77.57-1.5 1-2.18.14-1.69-.08-3.4-.64-5-.54-.98-.37-2.2.41-3 .51-.87.75-1.87.69-2.87-.38-1.22-.38-2.52 0-3.74.26-1.52.34-3.06.23-4.6.22-.85.69-1.62 1.36-2.2.63-.57.46-1.61.4-2.13 0-.69.69-1.55.92-2.12.15-1.24.01-2.5-.4-3.68-.35-.64-1.21-3.22 1.26-2.94 1.29.46 2.7.48 4 .06.46-.29 2-.4 1.38-1.9-.29-.63.06-1.72 1.38-1.55 2.07 0 4-.29 4.94.58s2.36 1.72 4.09-.06c1.15-1.61 1.72-2.53 1.43-3.74-.63-1.07-.54-2.42.23-3.39.28-.45 1.23-2.37 1-3.57-.16-1-.43-1.98-.79-2.92-.24-.38.28-1.2 1.55-.75.27.17 1.85.07 2.46.58.87.81 2.17.99 3.23.45 1.51-.73 4.83-.79 4.42 2.53-.1.52.52 2.85.55 4 .06 2.54-.1 5.07-.48 7.58-.27 6.12-.23 12.25.12 18.37.46 4.23.27 6.63-.56 8.1-.52.95-.45 2.12.19 3 .73.92 1.2 7 .46 9.57-.28 2-.65 5.43.09 7.91.28 1.93-.46 7.46-.64 9.57.09 1.29.37 5.71-1.57 7.73-.55.83-3.4 2.39-.46 4.05 1.41 1.37 1.78 3.48.92 5.25-.39.75-.2 1.68.46 2.21.92.73.28 2.39-.83 3.86-.18 1-1.1 3.13-.27 5.52.83 2.76.92 4.79-.28 8.56-.42.97-.35 2.09.19 3 .64.82.36 2-.55 3.22-.52 1.78-.07 3.7 1.19 5.06.74.74.65 2.21.37 3.22-.45 1.5-.76 3.04-.92 4.6-.25 1.02-1.16 1.74-2.21 1.75-1.18 1.07-2.74 1.64-4.33 1.56-.46.1-3.77 1.48-2.57-2 .36-3.13-.46-12.42-1.38-14.82-.65-1.1-1.2-2.76-1.94.56-.18 2.57 0 6.16-2.66 5.7-.75-.08-2 1-2.6 1.47s-4.35 1.15-4.66-1.72c-.23-1.82-.23-8.1-.43-9.38-.54-2-.75-2.9-2.23-2.19-.54.34-2.23.61-2.67-.61-.23-1.24-.16-1.92-1.34-2.09-.92 0-1.79.54-.75 1.72.68.81 1.69 1.35 1.35 3.61-.25.83-.91 1.48-1.75 1.72-.44.27-.81 1.11-.14 2.4s.48 2.93-.23 3.47c-.27.34-.57.74.07 1.21.64.47 1.11 1.25-.21 1.82-1.28 1.33-2.05 3.08-2.15 4.93-.08.84.05 1.68.37 2.46.37.61.81 1.11.1 1.92-.31.51-.51 1.69-.88 2.23-.46.53-.74 1.19-.81 1.88-.19 1.16-.31 2.33-.37 3.51-.17.54 0 1.49-2.93 1.42-1.29.07-2-.17-2.4.1-.85.44-1.8.67-2.76.67-.91-.13-1-.87-1.22-1.14-.61-.52-.95-1.29-.94-2.09 0-1.05 0-5.68-.34-6.51s-.28-2.44-1.12-3.84c-1.02-1.72-1.41-3.74-1.11-5.71.07-.84.14-1.68.49-2 .42-.73.42-1.64 0-2.37-.73-1.11-1.08-2.43-1-3.76.05-.73-.11-1.46-.46-2.1-.59-.74-.66-1.77-.19-2.59.11-1.01 0-2.04-.34-3-.33-.57-1.09-.62-1.28 0-.17 1.02-.12 2.07.16 3.07.31.95.91 1.69-.09 3.12-.1.66-.15 1.33-.14 2 0 .85-1.48 4-5.7 4.14-.78.01-1.56.12-2.31.33-1.03.2-2.08-.12-2.83-.85-.32-.88-1.29-1.33-2.16-1.01-.01 0-.02.01-.04.01-1.4.48-2.85.76-4.33.83-2.12 0-3.29-.62-3.76-1.31-.43-.61-.4-1.43.07-2 .32-.68.15-1.5-.41-2-.58-.52-.96-1.23-1.07-2 .05-1 .79-2.34.74-3.31-.15-.53-.41-1.03-.76-1.46-.31-.33-2-1-2.67.31-.31.73-.48 1.52-.5 2.31.07.6.86 2.77-.5 4.46-1.04 1.4-2.51 2.4-4.19 2.86-1.24.22-2.45.55-3.63 1-.68.53-1.22 1.21-1.57 2-.21.33-.71.57-1.62-.19-.25-.17-.59-.11-.77.14-.1.15-.13.33-.06.5.28.77.52 1.56.71 2.36 0 .9.36 2.31-1.24 3.64-.28.31-2.14.79-2.23 2 .14 1.09-.18 2.18-.87 3.03-1 1.08-.86 1-.93 1.24s-.55.55-.81-.07c-.28-.98-.42-1.99-.43-3-.1-.48-.19-1.6-2.12-2.72-1.38-1.05-2.24-2.65-2.36-4.38-.06-1.22-.28-2.42-.67-3.58-.33-.49-1.11-.92-1.59.1-.24.81-.64 4-.19 4.65s2.24 2-.24 4c-.55.41-1.45.72-1.5 2.15-.05.86.19 2.36-3.24 2.45-1.37-.06-2.5-1.09-2.69-2.45 0-.65.28-1.5 1-1.41.24 0 1.05-.07.65-.78-.34-.36-2.65-2.29-2.62-3.74.01-2.29-.12-4.57-.41-6.84-.05-.86.03-1.72.24-2.55.16-.53-.1-1.09-.6-1.31-.35 0-.71.31-1 1.12s-.41 2.79-.81 3.84c-.48.88-.84 1.09-.81 2s-.1 1.59-.76 1.85c-.78.34-1.68.22-2.34-.3-.71-.31-2.9-1.89-2.88-6.94.12-4.29-.68-16.07-.31-19.26s1-7.31.74-9.27c-.72-4.03-1.05-8.12-1-12.21.18-1.78 1.47-11.84.79-14s-2.63-6.5-.73-12c.3-2.27-.74-18.1-.86-19.63s-.8-4.73-.8-5.71c.06-.49.49-1.28 1.35-.67.25.24 1 1.41 1-.13.18-1.76.11-3.53-.18-5.27-.33-2.34-.42-4.7-.25-7.06.2-.7-.42-3.2-1.71-3.38z"/><path fill="#B0B4B6" d="M2.93 12.74c-1.09-.44-2.19-.88-2.19-2s.44-1.1 1.31-1.1c.24 0 1 .45 1-.45 0-.44 0-.83.88-.83C4.44 8.39 6 7.58 6 6.57c0-.61-.06-1.16.27-1.16s.61 0 1.11 1.22S8.25 8 8.92 8.28c.6.11 2.48.5 3.42-.38 1.22-.78 2.76-1.55 4-.67 1.99.29 4.01.27 6-.05 2-.58 4.06-.97 6.13-1.18 2.71 0 6.47 0 7.63-1.38.88-1.39 1.27-2.71 2-2.6.56-.06 1.22.39 1.38 2.1.11.39.34 1 2.44.72s3.48-.56 4.41-1.33c1-.78 1.94-1.65 2.81-2.58.61-.66 2.54-1.82 3 .22.22.89.16 2.71.77 3.26.57.44 1.23.75 1.93.89 1.06-.06 2.09.39 2.77 1.21.6.11 1 .17 1.43-.55s.67-.27 1.05 0c.61.16 2.82.16 3.71.22.71.22 1.54.22 1.49 2.21.11.83 0 1.88.11 2.21s.6.66 1.16.66c1.66.07 5.57-.5 6.6.71.49.54 1.08.99 1.73 1.32.57.23.92.75.92 1.89s.56 3.82 2.8 3.82h5.69c.86 0 1.5.11 1.55 1.43.18 1.85-.74 8.4-.46 10.3.46 2.53 1.21 12.76 1.27 14.49.11 2.87.06 14.14-.12 15.87-.05 3.45 0 7.88-.23 8.91.06 1.26.23 2.51.52 3.74.07 1.44-.09 2.87-.46 4.26-.4 1.15.4 3.45.75 4.37.46 1.41.52 2.93.17 4.37-.03.82-.16 1.63-.4 2.41 0 .87.4 2.48-1.09 3-.12.91-.64 3.91-.64 4.83-.06.61-.06 1.22 0 1.83.12.41.46.41.64 0 .27-1.69.42-3.4.46-5.11.01-.67.27-1.32.74-1.8.67-.45 1.16-1.12 1.38-1.9.18-.92.46-1.09.06-1.84-.64-1.91-.58-3.99.17-5.86.32-.32.69-.6 1.1-.81.4-.29.28-1 .28-1.61.11-.94-.03-1.89-.4-2.76-.2-.61-.07-1.29.35-1.78.63-.86 1.09-1.84.69-2.59s-.58-2 .05-2.41.75-1.27.29-2.3-.57-5.52.06-6.45c.23-.64.31-1.32.23-2 .23-.77.57-1.5 1-2.18.14-1.69-.08-3.4-.64-5-.54-.98-.37-2.2.41-3 .51-.87.75-1.87.69-2.87-.38-1.22-.38-2.52 0-3.74.26-1.52.34-3.06.23-4.6.22-.85.69-1.62 1.36-2.2.63-.57.46-1.61.4-2.13 0-.69.69-1.55.92-2.12.15-1.24.01-2.5-.4-3.68-.35-.64-1.21-3.22 1.26-2.94 1.29.46 2.7.48 4 .06.46-.29 2-.4 1.38-1.9-.29-.63.06-1.72 1.38-1.55 2.07 0 4-.29 4.94.58s2.36 1.72 4.09-.06c1.15-1.61 1.72-2.53 1.43-3.74-.63-1.07-.54-2.42.23-3.39.28-.45 1.23-2.37 1-3.57-.16-1-.43-1.98-.79-2.92-.24-.38.28-1.2 1.55-.75.27.17 1.85.07 2.46.58.87.81 2.17.99 3.23.45 1.51-.73 4.83-.79 4.42 2.53-.1.52.52 2.85.55 4 .06 2.54-.1 5.07-.48 7.58-.27 6.12-.23 12.25.12 18.37.46 4.23.27 6.63-.56 8.1-.52.95-.45 2.12.19 3 .73.92 1.2 7 .46 9.57-.28 2-.65 5.43.09 7.91.28 1.93-.46 7.46-.64 9.57.09 1.29.37 5.71-1.57 7.73-.55.83-3.4 2.39-.46 4.05 1.41 1.37 1.78 3.48.92 5.25-.39.75-.2 1.68.46 2.21.92.73.28 2.39-.83 3.86-.18 1-1.1 3.13-.27 5.52.83 2.76.92 4.79-.28 8.56-.42.97-.35 2.09.19 3 .64.82.36 2-.55 3.22-.52 1.78-.07 3.7 1.19 5.06.74.74.65 2.21.37 3.22-.45 1.5-.76 3.04-.92 4.6-.25 1.02-1.16 1.74-2.21 1.75-1.18 1.07-2.74 1.64-4.33 1.56-.46.1-3.77 1.48-2.57-2 .36-3.13-.46-12.42-1.38-14.82-.65-1.1-1.2-2.76-1.94.56-.18 2.57 0 6.16-2.66 5.7-.75-.08-2 1-2.6 1.47s-4.35 1.15-4.66-1.72c-.23-1.82-.23-8.1-.43-9.38-.54-2-.75-2.9-2.23-2.19-.54.34-2.23.61-2.67-.61-.23-1.24-.16-1.92-1.34-2.09-.92 0-1.79.54-.75 1.72.68.81 1.69 1.35 1.35 3.61-.25.83-.91 1.48-1.75 1.72-.44.27-.81 1.11-.14 2.4s.48 2.93-.23 3.47c-.27.34-.57.74.07 1.21.64.47 1.11 1.25-.21 1.82-1.28 1.33-2.05 3.08-2.15 4.93-.08.84.05 1.68.37 2.46.37.61.81 1.11.1 1.92-.31.51-.51 1.69-.88 2.23-.46.53-.74 1.19-.81 1.88-.19 1.16-.31 2.33-.37 3.51-.17.54 0 1.49-2.93 1.42-1.29.07-2-.17-2.4.1-.85.44-1.8.67-2.76.67-.91-.13-1-.87-1.22-1.14-.61-.52-.95-1.29-.94-2.09 0-1.05 0-5.68-.34-6.51s-.28-2.44-1.12-3.84c-1.02-1.72-1.41-3.74-1.11-5.71.07-.84.14-1.68.49-2 .42-.73.42-1.64 0-2.37-.73-1.11-1.08-2.43-1-3.76.05-.73-.11-1.46-.46-2.1-.59-.74-.66-1.77-.19-2.59.11-1.01 0-2.04-.34-3-.33-.57-1.09-.62-1.28 0-.17 1.02-.12 2.07.16 3.07.31.95.91 1.69-.09 3.12-.1.66-.15 1.33-.14 2 0 .85-1.48 4-5.7 4.14-.78.01-1.56.12-2.31.33-1.03.2-2.08-.12-2.83-.85-.32-.88-1.29-1.33-2.16-1.01-.01 0-.02.01-.04.01-1.4.48-2.85.76-4.33.83-2.12 0-3.29-.62-3.76-1.31-.43-.61-.4-1.43.07-2 .32-.68.15-1.5-.41-2-.58-.52-.96-1.23-1.07-2 .05-1 .79-2.34.74-3.31-.15-.53-.41-1.03-.76-1.46-.31-.33-2-1-2.67.31-.31.73-.48 1.52-.5 2.31.07.6.86 2.77-.5 4.46-1.04 1.4-2.51 2.4-4.19 2.86-1.24.22-2.45.55-3.63 1-.68.53-1.22 1.21-1.57 2-.21.33-.71.57-1.62-.19-.25-.17-.59-.11-.77.14-.1.15-.13.33-.06.5.28.77.52 1.56.71 2.36 0 .9.36 2.31-1.24 3.64-.28.31-2.14.79-2.23 2 .14 1.09-.18 2.18-.87 3.03-1 1.08-.86 1-.93 1.24s-.55.55-.81-.07c-.28-.98-.42-1.99-.43-3-.1-.48-.19-1.6-2.12-2.72-1.38-1.05-2.24-2.65-2.36-4.38-.06-1.22-.28-2.42-.67-3.58-.33-.49-1.11-.92-1.59.1-.24.81-.64 4-.19 4.65s2.24 2-.24 4c-.55.41-1.45.72-1.5 2.15-.05.86.19 2.36-3.24 2.45-1.37-.06-2.5-1.09-2.69-2.45 0-.65.28-1.5 1-1.41.24 0 1.05-.07.65-.78-.34-.36-2.65-2.29-2.62-3.74.01-2.29-.12-4.57-.41-6.84-.05-.86.03-1.72.24-2.55.16-.53-.1-1.09-.6-1.31-.35 0-.71.31-1 1.12s-.41 2.79-.81 3.84c-.48.88-.84 1.09-.81 2s-.1 1.59-.76 1.85c-.78.34-1.68.22-2.34-.3-.71-.31-2.9-1.89-2.88-6.94.12-4.29-.68-16.07-.31-19.26s1-7.31.74-9.27c-.72-4.03-1.05-8.12-1-12.21.18-1.78 1.47-11.84.79-14s-2.63-6.5-.73-12c.3-2.27-.74-18.1-.86-19.63s-.8-4.73-.8-5.71c.06-.49.49-1.28 1.35-.67.25.24 1 1.41 1-.13.18-1.76.11-3.53-.18-5.27-.33-2.34-.42-4.7-.25-7.06.2-.7-.42-3.2-1.71-3.38z"/><path fill-rule="evenodd" fill="#B0B4B6" d="M213.35 104.38c0-2.1-1.14-3.15-3.4-3.15h-2.72v6.4h2.29c.96.05 1.91-.24 2.68-.83.75-.57 1.18-1.47 1.15-2.42zm2.77 15.91c0-2.29-1.71-3.44-5.11-3.44h-3.78v7h3.58c3.54-.01 5.31-1.2 5.31-3.56z"/></g></svg>
